<?xml version="1.0" encoding="utf-8" standalone="no"?>
<!DOCTYPE svg PUBLIC "-//W3C//DTD SVG 1.1//EN"
  "http://www.w3.org/Graphics/SVG/1.1/DTD/svg11.dtd">
<!-- Created with matplotlib (https://matplotlib.org/) -->
<svg height="345.6pt" version="1.1" viewBox="0 0 460.8 345.6" width="460.8pt" xmlns="http://www.w3.org/2000/svg" xmlns:xlink="http://www.w3.org/1999/xlink">
 <defs>
  <style type="text/css">
*{stroke-linecap:butt;stroke-linejoin:round;white-space:pre;}
  </style>
 </defs>
 <g id="figure_1">
  <g id="patch_1">
   <path d="M 0 345.6 
L 460.8 345.6 
L 460.8 0 
L 0 0 
z
" style="fill:#ffffff;"/>
  </g>
  <g id="axes_1">
   <g id="patch_2">
    <path d="M 57.6 307.584 
L 414.72 307.584 
L 414.72 41.472 
L 57.6 41.472 
z
" style="fill:#ffffff;"/>
   </g>
   <g id="matplotlib.axis_1">
    <g id="xtick_1">
     <g id="line2d_1">
      <path clip-path="url(#pd8bacf9be9)" d="M 99.329158 307.584 
L 99.329158 41.472 
" style="fill:none;stroke:#000000;stroke-linecap:square;"/>
     </g>
     <g id="line2d_2">
      <defs>
       <path d="M 0 0 
L 0 3.5 
" id="mbb46518384" style="stroke:#000000;stroke-width:0.8;"/>
      </defs>
      <g>
       <use style="stroke:#000000;stroke-width:0.8;" x="99.329158" xlink:href="#mbb46518384" y="307.584"/>
      </g>
     </g>
     <g id="text_1">
      <!-- 25 -->
      <defs>
       <path d="M 19.1875 8.296875 
L 53.609375 8.296875 
L 53.609375 0 
L 7.328125 0 
L 7.328125 8.296875 
Q 12.9375 14.109375 22.625 23.890625 
Q 32.328125 33.6875 34.8125 36.53125 
Q 39.546875 41.84375 41.421875 45.53125 
Q 43.3125 49.21875 43.3125 52.78125 
Q 43.3125 58.59375 39.234375 62.25 
Q 35.15625 65.921875 28.609375 65.921875 
Q 23.96875 65.921875 18.8125 64.3125 
Q 13.671875 62.703125 7.8125 59.421875 
L 7.8125 69.390625 
Q 13.765625 71.78125 18.9375 73 
Q 24.125 74.21875 28.421875 74.21875 
Q 39.75 74.21875 46.484375 68.546875 
Q 53.21875 62.890625 53.21875 53.421875 
Q 53.21875 48.921875 51.53125 44.890625 
Q 49.859375 40.875 45.40625 35.40625 
Q 44.1875 33.984375 37.640625 27.21875 
Q 31.109375 20.453125 19.1875 8.296875 
z
" id="DejaVuSans-50"/>
       <path d="M 10.796875 72.90625 
L 49.515625 72.90625 
L 49.515625 64.59375 
L 19.828125 64.59375 
L 19.828125 46.734375 
Q 21.96875 47.46875 24.109375 47.828125 
Q 26.265625 48.1875 28.421875 48.1875 
Q 40.625 48.1875 47.75 41.5 
Q 54.890625 34.8125 54.890625 23.390625 
Q 54.890625 11.625 47.5625 5.09375 
Q 40.234375 -1.421875 26.90625 -1.421875 
Q 22.3125 -1.421875 17.546875 -0.640625 
Q 12.796875 0.140625 7.71875 1.703125 
L 7.71875 11.625 
Q 12.109375 9.234375 16.796875 8.0625 
Q 21.484375 6.890625 26.703125 6.890625 
Q 35.15625 6.890625 40.078125 11.328125 
Q 45.015625 15.765625 45.015625 23.390625 
Q 45.015625 31 40.078125 35.4375 
Q 35.15625 39.890625 26.703125 39.890625 
Q 22.75 39.890625 18.8125 39.015625 
Q 14.890625 38.140625 10.796875 36.28125 
z
" id="DejaVuSans-53"/>
      </defs>
      <g transform="translate(92.966658 322.182437)scale(0.1 -0.1)">
       <use xlink:href="#DejaVuSans-50"/>
       <use x="63.623047" xlink:href="#DejaVuSans-53"/>
      </g>
     </g>
    </g>
    <g id="xtick_2">
     <g id="line2d_3">
      <path clip-path="url(#pd8bacf9be9)" d="M 141.823208 307.584 
L 141.823208 41.472 
" style="fill:none;stroke:#000000;stroke-linecap:square;"/>
     </g>
     <g id="line2d_4">
      <g>
       <use style="stroke:#000000;stroke-width:0.8;" x="141.823208" xlink:href="#mbb46518384" y="307.584"/>
      </g>
     </g>
     <g id="text_2">
      <!-- 50 -->
      <defs>
       <path d="M 31.78125 66.40625 
Q 24.171875 66.40625 20.328125 58.90625 
Q 16.5 51.421875 16.5 36.375 
Q 16.5 21.390625 20.328125 13.890625 
Q 24.171875 6.390625 31.78125 6.390625 
Q 39.453125 6.390625 43.28125 13.890625 
Q 47.125 21.390625 47.125 36.375 
Q 47.125 51.421875 43.28125 58.90625 
Q 39.453125 66.40625 31.78125 66.40625 
z
M 31.78125 74.21875 
Q 44.046875 74.21875 50.515625 64.515625 
Q 56.984375 54.828125 56.984375 36.375 
Q 56.984375 17.96875 50.515625 8.265625 
Q 44.046875 -1.421875 31.78125 -1.421875 
Q 19.53125 -1.421875 13.0625 8.265625 
Q 6.59375 17.96875 6.59375 36.375 
Q 6.59375 54.828125 13.0625 64.515625 
Q 19.53125 74.21875 31.78125 74.21875 
z
" id="DejaVuSans-48"/>
      </defs>
      <g transform="translate(135.460708 322.182437)scale(0.1 -0.1)">
       <use xlink:href="#DejaVuSans-53"/>
       <use x="63.623047" xlink:href="#DejaVuSans-48"/>
      </g>
     </g>
    </g>
    <g id="xtick_3">
     <g id="line2d_5">
      <path clip-path="url(#pd8bacf9be9)" d="M 184.317258 307.584 
L 184.317258 41.472 
" style="fill:none;stroke:#000000;stroke-linecap:square;"/>
     </g>
     <g id="line2d_6">
      <g>
       <use style="stroke:#000000;stroke-width:0.8;" x="184.317258" xlink:href="#mbb46518384" y="307.584"/>
      </g>
     </g>
     <g id="text_3">
      <!-- 75 -->
      <defs>
       <path d="M 8.203125 72.90625 
L 55.078125 72.90625 
L 55.078125 68.703125 
L 28.609375 0 
L 18.3125 0 
L 43.21875 64.59375 
L 8.203125 64.59375 
z
" id="DejaVuSans-55"/>
      </defs>
      <g transform="translate(177.954758 322.182437)scale(0.1 -0.1)">
       <use xlink:href="#DejaVuSans-55"/>
       <use x="63.623047" xlink:href="#DejaVuSans-53"/>
      </g>
     </g>
    </g>
    <g id="xtick_4">
     <g id="line2d_7">
      <path clip-path="url(#pd8bacf9be9)" d="M 226.811309 307.584 
L 226.811309 41.472 
" style="fill:none;stroke:#000000;stroke-linecap:square;"/>
     </g>
     <g id="line2d_8">
      <g>
       <use style="stroke:#000000;stroke-width:0.8;" x="226.811309" xlink:href="#mbb46518384" y="307.584"/>
      </g>
     </g>
     <g id="text_4">
      <!-- 100 -->
      <defs>
       <path d="M 12.40625 8.296875 
L 28.515625 8.296875 
L 28.515625 63.921875 
L 10.984375 60.40625 
L 10.984375 69.390625 
L 28.421875 72.90625 
L 38.28125 72.90625 
L 38.28125 8.296875 
L 54.390625 8.296875 
L 54.390625 0 
L 12.40625 0 
z
" id="DejaVuSans-49"/>
      </defs>
      <g transform="translate(217.267559 322.182437)scale(0.1 -0.1)">
       <use xlink:href="#DejaVuSans-49"/>
       <use x="63.623047" xlink:href="#DejaVuSans-48"/>
       <use x="127.246094" xlink:href="#DejaVuSans-48"/>
      </g>
     </g>
    </g>
    <g id="xtick_5">
     <g id="line2d_9">
      <path clip-path="url(#pd8bacf9be9)" d="M 269.305359 307.584 
L 269.305359 41.472 
" style="fill:none;stroke:#000000;stroke-linecap:square;"/>
     </g>
     <g id="line2d_10">
      <g>
       <use style="stroke:#000000;stroke-width:0.8;" x="269.305359" xlink:href="#mbb46518384" y="307.584"/>
      </g>
     </g>
     <g id="text_5">
      <!-- 125 -->
      <g transform="translate(259.761609 322.182437)scale(0.1 -0.1)">
       <use xlink:href="#DejaVuSans-49"/>
       <use x="63.623047" xlink:href="#DejaVuSans-50"/>
       <use x="127.246094" xlink:href="#DejaVuSans-53"/>
      </g>
     </g>
    </g>
    <g id="xtick_6">
     <g id="line2d_11">
      <path clip-path="url(#pd8bacf9be9)" d="M 311.79941 307.584 
L 311.79941 41.472 
" style="fill:none;stroke:#000000;stroke-linecap:square;"/>
     </g>
     <g id="line2d_12">
      <g>
       <use style="stroke:#000000;stroke-width:0.8;" x="311.79941" xlink:href="#mbb46518384" y="307.584"/>
      </g>
     </g>
     <g id="text_6">
      <!-- 150 -->
      <g transform="translate(302.25566 322.182437)scale(0.1 -0.1)">
       <use xlink:href="#DejaVuSans-49"/>
       <use x="63.623047" xlink:href="#DejaVuSans-53"/>
       <use x="127.246094" xlink:href="#DejaVuSans-48"/>
      </g>
     </g>
    </g>
    <g id="xtick_7">
     <g id="line2d_13">
      <path clip-path="url(#pd8bacf9be9)" d="M 354.29346 307.584 
L 354.29346 41.472 
" style="fill:none;stroke:#000000;stroke-linecap:square;"/>
     </g>
     <g id="line2d_14">
      <g>
       <use style="stroke:#000000;stroke-width:0.8;" x="354.29346" xlink:href="#mbb46518384" y="307.584"/>
      </g>
     </g>
     <g id="text_7">
      <!-- 175 -->
      <g transform="translate(344.74971 322.182437)scale(0.1 -0.1)">
       <use xlink:href="#DejaVuSans-49"/>
       <use x="63.623047" xlink:href="#DejaVuSans-55"/>
       <use x="127.246094" xlink:href="#DejaVuSans-53"/>
      </g>
     </g>
    </g>
    <g id="xtick_8">
     <g id="line2d_15">
      <path clip-path="url(#pd8bacf9be9)" d="M 396.787511 307.584 
L 396.787511 41.472 
" style="fill:none;stroke:#000000;stroke-linecap:square;"/>
     </g>
     <g id="line2d_16">
      <g>
       <use style="stroke:#000000;stroke-width:0.8;" x="396.787511" xlink:href="#mbb46518384" y="307.584"/>
      </g>
     </g>
     <g id="text_8">
      <!-- 200 -->
      <g transform="translate(387.243761 322.182437)scale(0.1 -0.1)">
       <use xlink:href="#DejaVuSans-50"/>
       <use x="63.623047" xlink:href="#DejaVuSans-48"/>
       <use x="127.246094" xlink:href="#DejaVuSans-48"/>
      </g>
     </g>
    </g>
    <g id="xtick_9">
     <g id="line2d_17">
      <path clip-path="url(#pd8bacf9be9)" d="M 65.333917 307.584 
L 65.333917 41.472 
" style="fill:none;stroke:#b0b0b0;stroke-linecap:square;stroke-width:0.8;"/>
     </g>
     <g id="line2d_18">
      <defs>
       <path d="M 0 0 
L 0 2 
" id="ma58b6b545e" style="stroke:#000000;stroke-width:0.6;"/>
      </defs>
      <g>
       <use style="stroke:#000000;stroke-width:0.6;" x="65.333917" xlink:href="#ma58b6b545e" y="307.584"/>
      </g>
     </g>
    </g>
    <g id="xtick_10">
     <g id="line2d_19">
      <path clip-path="url(#pd8bacf9be9)" d="M 73.832727 307.584 
L 73.832727 41.472 
" style="fill:none;stroke:#b0b0b0;stroke-linecap:square;stroke-width:0.8;"/>
     </g>
     <g id="line2d_20">
      <g>
       <use style="stroke:#000000;stroke-width:0.6;" x="73.832727" xlink:href="#ma58b6b545e" y="307.584"/>
      </g>
     </g>
    </g>
    <g id="xtick_11">
     <g id="line2d_21">
      <path clip-path="url(#pd8bacf9be9)" d="M 82.331537 307.584 
L 82.331537 41.472 
" style="fill:none;stroke:#b0b0b0;stroke-linecap:square;stroke-width:0.8;"/>
     </g>
     <g id="line2d_22">
      <g>
       <use style="stroke:#000000;stroke-width:0.6;" x="82.331537" xlink:href="#ma58b6b545e" y="307.584"/>
      </g>
     </g>
    </g>
    <g id="xtick_12">
     <g id="line2d_23">
      <path clip-path="url(#pd8bacf9be9)" d="M 90.830347 307.584 
L 90.830347 41.472 
" style="fill:none;stroke:#b0b0b0;stroke-linecap:square;stroke-width:0.8;"/>
     </g>
     <g id="line2d_24">
      <g>
       <use style="stroke:#000000;stroke-width:0.6;" x="90.830347" xlink:href="#ma58b6b545e" y="307.584"/>
      </g>
     </g>
    </g>
    <g id="xtick_13">
     <g id="line2d_25">
      <path clip-path="url(#pd8bacf9be9)" d="M 107.827968 307.584 
L 107.827968 41.472 
" style="fill:none;stroke:#b0b0b0;stroke-linecap:square;stroke-width:0.8;"/>
     </g>
     <g id="line2d_26">
      <g>
       <use style="stroke:#000000;stroke-width:0.6;" x="107.827968" xlink:href="#ma58b6b545e" y="307.584"/>
      </g>
     </g>
    </g>
    <g id="xtick_14">
     <g id="line2d_27">
      <path clip-path="url(#pd8bacf9be9)" d="M 116.326778 307.584 
L 116.326778 41.472 
" style="fill:none;stroke:#b0b0b0;stroke-linecap:square;stroke-width:0.8;"/>
     </g>
     <g id="line2d_28">
      <g>
       <use style="stroke:#000000;stroke-width:0.6;" x="116.326778" xlink:href="#ma58b6b545e" y="307.584"/>
      </g>
     </g>
    </g>
    <g id="xtick_15">
     <g id="line2d_29">
      <path clip-path="url(#pd8bacf9be9)" d="M 124.825588 307.584 
L 124.825588 41.472 
" style="fill:none;stroke:#b0b0b0;stroke-linecap:square;stroke-width:0.8;"/>
     </g>
     <g id="line2d_30">
      <g>
       <use style="stroke:#000000;stroke-width:0.6;" x="124.825588" xlink:href="#ma58b6b545e" y="307.584"/>
      </g>
     </g>
    </g>
    <g id="xtick_16">
     <g id="line2d_31">
      <path clip-path="url(#pd8bacf9be9)" d="M 133.324398 307.584 
L 133.324398 41.472 
" style="fill:none;stroke:#b0b0b0;stroke-linecap:square;stroke-width:0.8;"/>
     </g>
     <g id="line2d_32">
      <g>
       <use style="stroke:#000000;stroke-width:0.6;" x="133.324398" xlink:href="#ma58b6b545e" y="307.584"/>
      </g>
     </g>
    </g>
    <g id="xtick_17">
     <g id="line2d_33">
      <path clip-path="url(#pd8bacf9be9)" d="M 150.322018 307.584 
L 150.322018 41.472 
" style="fill:none;stroke:#b0b0b0;stroke-linecap:square;stroke-width:0.8;"/>
     </g>
     <g id="line2d_34">
      <g>
       <use style="stroke:#000000;stroke-width:0.6;" x="150.322018" xlink:href="#ma58b6b545e" y="307.584"/>
      </g>
     </g>
    </g>
    <g id="xtick_18">
     <g id="line2d_35">
      <path clip-path="url(#pd8bacf9be9)" d="M 158.820828 307.584 
L 158.820828 41.472 
" style="fill:none;stroke:#b0b0b0;stroke-linecap:square;stroke-width:0.8;"/>
     </g>
     <g id="line2d_36">
      <g>
       <use style="stroke:#000000;stroke-width:0.6;" x="158.820828" xlink:href="#ma58b6b545e" y="307.584"/>
      </g>
     </g>
    </g>
    <g id="xtick_19">
     <g id="line2d_37">
      <path clip-path="url(#pd8bacf9be9)" d="M 167.319638 307.584 
L 167.319638 41.472 
" style="fill:none;stroke:#b0b0b0;stroke-linecap:square;stroke-width:0.8;"/>
     </g>
     <g id="line2d_38">
      <g>
       <use style="stroke:#000000;stroke-width:0.6;" x="167.319638" xlink:href="#ma58b6b545e" y="307.584"/>
      </g>
     </g>
    </g>
    <g id="xtick_20">
     <g id="line2d_39">
      <path clip-path="url(#pd8bacf9be9)" d="M 175.818448 307.584 
L 175.818448 41.472 
" style="fill:none;stroke:#b0b0b0;stroke-linecap:square;stroke-width:0.8;"/>
     </g>
     <g id="line2d_40">
      <g>
       <use style="stroke:#000000;stroke-width:0.6;" x="175.818448" xlink:href="#ma58b6b545e" y="307.584"/>
      </g>
     </g>
    </g>
    <g id="xtick_21">
     <g id="line2d_41">
      <path clip-path="url(#pd8bacf9be9)" d="M 192.816069 307.584 
L 192.816069 41.472 
" style="fill:none;stroke:#b0b0b0;stroke-linecap:square;stroke-width:0.8;"/>
     </g>
     <g id="line2d_42">
      <g>
       <use style="stroke:#000000;stroke-width:0.6;" x="192.816069" xlink:href="#ma58b6b545e" y="307.584"/>
      </g>
     </g>
    </g>
    <g id="xtick_22">
     <g id="line2d_43">
      <path clip-path="url(#pd8bacf9be9)" d="M 201.314879 307.584 
L 201.314879 41.472 
" style="fill:none;stroke:#b0b0b0;stroke-linecap:square;stroke-width:0.8;"/>
     </g>
     <g id="line2d_44">
      <g>
       <use style="stroke:#000000;stroke-width:0.6;" x="201.314879" xlink:href="#ma58b6b545e" y="307.584"/>
      </g>
     </g>
    </g>
    <g id="xtick_23">
     <g id="line2d_45">
      <path clip-path="url(#pd8bacf9be9)" d="M 209.813689 307.584 
L 209.813689 41.472 
" style="fill:none;stroke:#b0b0b0;stroke-linecap:square;stroke-width:0.8;"/>
     </g>
     <g id="line2d_46">
      <g>
       <use style="stroke:#000000;stroke-width:0.6;" x="209.813689" xlink:href="#ma58b6b545e" y="307.584"/>
      </g>
     </g>
    </g>
    <g id="xtick_24">
     <g id="line2d_47">
      <path clip-path="url(#pd8bacf9be9)" d="M 218.312499 307.584 
L 218.312499 41.472 
" style="fill:none;stroke:#b0b0b0;stroke-linecap:square;stroke-width:0.8;"/>
     </g>
     <g id="line2d_48">
      <g>
       <use style="stroke:#000000;stroke-width:0.6;" x="218.312499" xlink:href="#ma58b6b545e" y="307.584"/>
      </g>
     </g>
    </g>
    <g id="xtick_25">
     <g id="line2d_49">
      <path clip-path="url(#pd8bacf9be9)" d="M 235.310119 307.584 
L 235.310119 41.472 
" style="fill:none;stroke:#b0b0b0;stroke-linecap:square;stroke-width:0.8;"/>
     </g>
     <g id="line2d_50">
      <g>
       <use style="stroke:#000000;stroke-width:0.6;" x="235.310119" xlink:href="#ma58b6b545e" y="307.584"/>
      </g>
     </g>
    </g>
    <g id="xtick_26">
     <g id="line2d_51">
      <path clip-path="url(#pd8bacf9be9)" d="M 243.808929 307.584 
L 243.808929 41.472 
" style="fill:none;stroke:#b0b0b0;stroke-linecap:square;stroke-width:0.8;"/>
     </g>
     <g id="line2d_52">
      <g>
       <use style="stroke:#000000;stroke-width:0.6;" x="243.808929" xlink:href="#ma58b6b545e" y="307.584"/>
      </g>
     </g>
    </g>
    <g id="xtick_27">
     <g id="line2d_53">
      <path clip-path="url(#pd8bacf9be9)" d="M 252.307739 307.584 
L 252.307739 41.472 
" style="fill:none;stroke:#b0b0b0;stroke-linecap:square;stroke-width:0.8;"/>
     </g>
     <g id="line2d_54">
      <g>
       <use style="stroke:#000000;stroke-width:0.6;" x="252.307739" xlink:href="#ma58b6b545e" y="307.584"/>
      </g>
     </g>
    </g>
    <g id="xtick_28">
     <g id="line2d_55">
      <path clip-path="url(#pd8bacf9be9)" d="M 260.806549 307.584 
L 260.806549 41.472 
" style="fill:none;stroke:#b0b0b0;stroke-linecap:square;stroke-width:0.8;"/>
     </g>
     <g id="line2d_56">
      <g>
       <use style="stroke:#000000;stroke-width:0.6;" x="260.806549" xlink:href="#ma58b6b545e" y="307.584"/>
      </g>
     </g>
    </g>
    <g id="xtick_29">
     <g id="line2d_57">
      <path clip-path="url(#pd8bacf9be9)" d="M 277.804169 307.584 
L 277.804169 41.472 
" style="fill:none;stroke:#b0b0b0;stroke-linecap:square;stroke-width:0.8;"/>
     </g>
     <g id="line2d_58">
      <g>
       <use style="stroke:#000000;stroke-width:0.6;" x="277.804169" xlink:href="#ma58b6b545e" y="307.584"/>
      </g>
     </g>
    </g>
    <g id="xtick_30">
     <g id="line2d_59">
      <path clip-path="url(#pd8bacf9be9)" d="M 286.30298 307.584 
L 286.30298 41.472 
" style="fill:none;stroke:#b0b0b0;stroke-linecap:square;stroke-width:0.8;"/>
     </g>
     <g id="line2d_60">
      <g>
       <use style="stroke:#000000;stroke-width:0.6;" x="286.30298" xlink:href="#ma58b6b545e" y="307.584"/>
      </g>
     </g>
    </g>
    <g id="xtick_31">
     <g id="line2d_61">
      <path clip-path="url(#pd8bacf9be9)" d="M 294.80179 307.584 
L 294.80179 41.472 
" style="fill:none;stroke:#b0b0b0;stroke-linecap:square;stroke-width:0.8;"/>
     </g>
     <g id="line2d_62">
      <g>
       <use style="stroke:#000000;stroke-width:0.6;" x="294.80179" xlink:href="#ma58b6b545e" y="307.584"/>
      </g>
     </g>
    </g>
    <g id="xtick_32">
     <g id="line2d_63">
      <path clip-path="url(#pd8bacf9be9)" d="M 303.3006 307.584 
L 303.3006 41.472 
" style="fill:none;stroke:#b0b0b0;stroke-linecap:square;stroke-width:0.8;"/>
     </g>
     <g id="line2d_64">
      <g>
       <use style="stroke:#000000;stroke-width:0.6;" x="303.3006" xlink:href="#ma58b6b545e" y="307.584"/>
      </g>
     </g>
    </g>
    <g id="xtick_33">
     <g id="line2d_65">
      <path clip-path="url(#pd8bacf9be9)" d="M 320.29822 307.584 
L 320.29822 41.472 
" style="fill:none;stroke:#b0b0b0;stroke-linecap:square;stroke-width:0.8;"/>
     </g>
     <g id="line2d_66">
      <g>
       <use style="stroke:#000000;stroke-width:0.6;" x="320.29822" xlink:href="#ma58b6b545e" y="307.584"/>
      </g>
     </g>
    </g>
    <g id="xtick_34">
     <g id="line2d_67">
      <path clip-path="url(#pd8bacf9be9)" d="M 328.79703 307.584 
L 328.79703 41.472 
" style="fill:none;stroke:#b0b0b0;stroke-linecap:square;stroke-width:0.8;"/>
     </g>
     <g id="line2d_68">
      <g>
       <use style="stroke:#000000;stroke-width:0.6;" x="328.79703" xlink:href="#ma58b6b545e" y="307.584"/>
      </g>
     </g>
    </g>
    <g id="xtick_35">
     <g id="line2d_69">
      <path clip-path="url(#pd8bacf9be9)" d="M 337.29584 307.584 
L 337.29584 41.472 
" style="fill:none;stroke:#b0b0b0;stroke-linecap:square;stroke-width:0.8;"/>
     </g>
     <g id="line2d_70">
      <g>
       <use style="stroke:#000000;stroke-width:0.6;" x="337.29584" xlink:href="#ma58b6b545e" y="307.584"/>
      </g>
     </g>
    </g>
    <g id="xtick_36">
     <g id="line2d_71">
      <path clip-path="url(#pd8bacf9be9)" d="M 345.79465 307.584 
L 345.79465 41.472 
" style="fill:none;stroke:#b0b0b0;stroke-linecap:square;stroke-width:0.8;"/>
     </g>
     <g id="line2d_72">
      <g>
       <use style="stroke:#000000;stroke-width:0.6;" x="345.79465" xlink:href="#ma58b6b545e" y="307.584"/>
      </g>
     </g>
    </g>
    <g id="xtick_37">
     <g id="line2d_73">
      <path clip-path="url(#pd8bacf9be9)" d="M 362.79227 307.584 
L 362.79227 41.472 
" style="fill:none;stroke:#b0b0b0;stroke-linecap:square;stroke-width:0.8;"/>
     </g>
     <g id="line2d_74">
      <g>
       <use style="stroke:#000000;stroke-width:0.6;" x="362.79227" xlink:href="#ma58b6b545e" y="307.584"/>
      </g>
     </g>
    </g>
    <g id="xtick_38">
     <g id="line2d_75">
      <path clip-path="url(#pd8bacf9be9)" d="M 371.29108 307.584 
L 371.29108 41.472 
" style="fill:none;stroke:#b0b0b0;stroke-linecap:square;stroke-width:0.8;"/>
     </g>
     <g id="line2d_76">
      <g>
       <use style="stroke:#000000;stroke-width:0.6;" x="371.29108" xlink:href="#ma58b6b545e" y="307.584"/>
      </g>
     </g>
    </g>
    <g id="xtick_39">
     <g id="line2d_77">
      <path clip-path="url(#pd8bacf9be9)" d="M 379.789891 307.584 
L 379.789891 41.472 
" style="fill:none;stroke:#b0b0b0;stroke-linecap:square;stroke-width:0.8;"/>
     </g>
     <g id="line2d_78">
      <g>
       <use style="stroke:#000000;stroke-width:0.6;" x="379.789891" xlink:href="#ma58b6b545e" y="307.584"/>
      </g>
     </g>
    </g>
    <g id="xtick_40">
     <g id="line2d_79">
      <path clip-path="url(#pd8bacf9be9)" d="M 388.288701 307.584 
L 388.288701 41.472 
" style="fill:none;stroke:#b0b0b0;stroke-linecap:square;stroke-width:0.8;"/>
     </g>
     <g id="line2d_80">
      <g>
       <use style="stroke:#000000;stroke-width:0.6;" x="388.288701" xlink:href="#ma58b6b545e" y="307.584"/>
      </g>
     </g>
    </g>
    <g id="xtick_41">
     <g id="line2d_81">
      <path clip-path="url(#pd8bacf9be9)" d="M 405.286321 307.584 
L 405.286321 41.472 
" style="fill:none;stroke:#b0b0b0;stroke-linecap:square;stroke-width:0.8;"/>
     </g>
     <g id="line2d_82">
      <g>
       <use style="stroke:#000000;stroke-width:0.6;" x="405.286321" xlink:href="#ma58b6b545e" y="307.584"/>
      </g>
     </g>
    </g>
    <g id="xtick_42">
     <g id="line2d_83">
      <path clip-path="url(#pd8bacf9be9)" d="M 413.785131 307.584 
L 413.785131 41.472 
" style="fill:none;stroke:#b0b0b0;stroke-linecap:square;stroke-width:0.8;"/>
     </g>
     <g id="line2d_84">
      <g>
       <use style="stroke:#000000;stroke-width:0.6;" x="413.785131" xlink:href="#ma58b6b545e" y="307.584"/>
      </g>
     </g>
    </g>
    <g id="text_9">
     <!-- Gain [dB] -->
     <defs>
      <path d="M 59.515625 10.40625 
L 59.515625 29.984375 
L 43.40625 29.984375 
L 43.40625 38.09375 
L 69.28125 38.09375 
L 69.28125 6.78125 
Q 63.578125 2.734375 56.6875 0.65625 
Q 49.8125 -1.421875 42 -1.421875 
Q 24.90625 -1.421875 15.25 8.5625 
Q 5.609375 18.5625 5.609375 36.375 
Q 5.609375 54.25 15.25 64.234375 
Q 24.90625 74.21875 42 74.21875 
Q 49.125 74.21875 55.546875 72.453125 
Q 61.96875 70.703125 67.390625 67.28125 
L 67.390625 56.78125 
Q 61.921875 61.421875 55.765625 63.765625 
Q 49.609375 66.109375 42.828125 66.109375 
Q 29.4375 66.109375 22.71875 58.640625 
Q 16.015625 51.171875 16.015625 36.375 
Q 16.015625 21.625 22.71875 14.15625 
Q 29.4375 6.6875 42.828125 6.6875 
Q 48.046875 6.6875 52.140625 7.59375 
Q 56.25 8.5 59.515625 10.40625 
z
" id="DejaVuSans-71"/>
      <path d="M 34.28125 27.484375 
Q 23.390625 27.484375 19.1875 25 
Q 14.984375 22.515625 14.984375 16.5 
Q 14.984375 11.71875 18.140625 8.90625 
Q 21.296875 6.109375 26.703125 6.109375 
Q 34.1875 6.109375 38.703125 11.40625 
Q 43.21875 16.703125 43.21875 25.484375 
L 43.21875 27.484375 
z
M 52.203125 31.203125 
L 52.203125 0 
L 43.21875 0 
L 43.21875 8.296875 
Q 40.140625 3.328125 35.546875 0.953125 
Q 30.953125 -1.421875 24.3125 -1.421875 
Q 15.921875 -1.421875 10.953125 3.296875 
Q 6 8.015625 6 15.921875 
Q 6 25.140625 12.171875 29.828125 
Q 18.359375 34.515625 30.609375 34.515625 
L 43.21875 34.515625 
L 43.21875 35.40625 
Q 43.21875 41.609375 39.140625 45 
Q 35.0625 48.390625 27.6875 48.390625 
Q 23 48.390625 18.546875 47.265625 
Q 14.109375 46.140625 10.015625 43.890625 
L 10.015625 52.203125 
Q 14.9375 54.109375 19.578125 55.046875 
Q 24.21875 56 28.609375 56 
Q 40.484375 56 46.34375 49.84375 
Q 52.203125 43.703125 52.203125 31.203125 
z
" id="DejaVuSans-97"/>
      <path d="M 9.421875 54.6875 
L 18.40625 54.6875 
L 18.40625 0 
L 9.421875 0 
z
M 9.421875 75.984375 
L 18.40625 75.984375 
L 18.40625 64.59375 
L 9.421875 64.59375 
z
" id="DejaVuSans-105"/>
      <path d="M 54.890625 33.015625 
L 54.890625 0 
L 45.90625 0 
L 45.90625 32.71875 
Q 45.90625 40.484375 42.875 44.328125 
Q 39.84375 48.1875 33.796875 48.1875 
Q 26.515625 48.1875 22.3125 43.546875 
Q 18.109375 38.921875 18.109375 30.90625 
L 18.109375 0 
L 9.078125 0 
L 9.078125 54.6875 
L 18.109375 54.6875 
L 18.109375 46.1875 
Q 21.34375 51.125 25.703125 53.5625 
Q 30.078125 56 35.796875 56 
Q 45.21875 56 50.046875 50.171875 
Q 54.890625 44.34375 54.890625 33.015625 
z
" id="DejaVuSans-110"/>
      <path id="DejaVuSans-32"/>
      <path d="M 8.59375 75.984375 
L 29.296875 75.984375 
L 29.296875 69 
L 17.578125 69 
L 17.578125 -6.203125 
L 29.296875 -6.203125 
L 29.296875 -13.1875 
L 8.59375 -13.1875 
z
" id="DejaVuSans-91"/>
      <path d="M 45.40625 46.390625 
L 45.40625 75.984375 
L 54.390625 75.984375 
L 54.390625 0 
L 45.40625 0 
L 45.40625 8.203125 
Q 42.578125 3.328125 38.25 0.953125 
Q 33.9375 -1.421875 27.875 -1.421875 
Q 17.96875 -1.421875 11.734375 6.484375 
Q 5.515625 14.40625 5.515625 27.296875 
Q 5.515625 40.1875 11.734375 48.09375 
Q 17.96875 56 27.875 56 
Q 33.9375 56 38.25 53.625 
Q 42.578125 51.265625 45.40625 46.390625 
z
M 14.796875 27.296875 
Q 14.796875 17.390625 18.875 11.75 
Q 22.953125 6.109375 30.078125 6.109375 
Q 37.203125 6.109375 41.296875 11.75 
Q 45.40625 17.390625 45.40625 27.296875 
Q 45.40625 37.203125 41.296875 42.84375 
Q 37.203125 48.484375 30.078125 48.484375 
Q 22.953125 48.484375 18.875 42.84375 
Q 14.796875 37.203125 14.796875 27.296875 
z
" id="DejaVuSans-100"/>
      <path d="M 19.671875 34.8125 
L 19.671875 8.109375 
L 35.5 8.109375 
Q 43.453125 8.109375 47.28125 11.40625 
Q 51.125 14.703125 51.125 21.484375 
Q 51.125 28.328125 47.28125 31.5625 
Q 43.453125 34.8125 35.5 34.8125 
z
M 19.671875 64.796875 
L 19.671875 42.828125 
L 34.28125 42.828125 
Q 41.5 42.828125 45.03125 45.53125 
Q 48.578125 48.25 48.578125 53.8125 
Q 48.578125 59.328125 45.03125 62.0625 
Q 41.5 64.796875 34.28125 64.796875 
z
M 9.8125 72.90625 
L 35.015625 72.90625 
Q 46.296875 72.90625 52.390625 68.21875 
Q 58.5 63.53125 58.5 54.890625 
Q 58.5 48.1875 55.375 44.234375 
Q 52.25 40.28125 46.1875 39.3125 
Q 53.46875 37.75 57.5 32.78125 
Q 61.53125 27.828125 61.53125 20.40625 
Q 61.53125 10.640625 54.890625 5.3125 
Q 48.25 0 35.984375 0 
L 9.8125 0 
z
" id="DejaVuSans-66"/>
      <path d="M 30.421875 75.984375 
L 30.421875 -13.1875 
L 9.71875 -13.1875 
L 9.71875 -6.203125 
L 21.390625 -6.203125 
L 21.390625 69 
L 9.71875 69 
L 9.71875 75.984375 
z
" id="DejaVuSans-93"/>
     </defs>
     <g transform="translate(212.568594 335.860562)scale(0.1 -0.1)">
      <use xlink:href="#DejaVuSans-71"/>
      <use x="77.490234" xlink:href="#DejaVuSans-97"/>
      <use x="138.769531" xlink:href="#DejaVuSans-105"/>
      <use x="166.552734" xlink:href="#DejaVuSans-110"/>
      <use x="229.931641" xlink:href="#DejaVuSans-32"/>
      <use x="261.71875" xlink:href="#DejaVuSans-91"/>
      <use x="300.732422" xlink:href="#DejaVuSans-100"/>
      <use x="364.208984" xlink:href="#DejaVuSans-66"/>
      <use x="432.8125" xlink:href="#DejaVuSans-93"/>
     </g>
    </g>
   </g>
   <g id="matplotlib.axis_2">
    <g id="ytick_1">
     <g id="line2d_85">
      <path clip-path="url(#pd8bacf9be9)" d="M 57.6 293.685132 
L 414.72 293.685132 
" style="fill:none;stroke:#000000;stroke-linecap:square;"/>
     </g>
     <g id="line2d_86">
      <defs>
       <path d="M 0 0 
L -3.5 0 
" id="me4606f3f19" style="stroke:#000000;stroke-width:0.8;"/>
      </defs>
      <g>
       <use style="stroke:#000000;stroke-width:0.8;" x="57.6" xlink:href="#me4606f3f19" y="293.685132"/>
      </g>
     </g>
     <g id="text_10">
      <!-- 50 -->
      <g transform="translate(37.875 297.484351)scale(0.1 -0.1)">
       <use xlink:href="#DejaVuSans-53"/>
       <use x="63.623047" xlink:href="#DejaVuSans-48"/>
      </g>
     </g>
    </g>
    <g id="ytick_2">
     <g id="line2d_87">
      <path clip-path="url(#pd8bacf9be9)" d="M 57.6 260.413106 
L 414.72 260.413106 
" style="fill:none;stroke:#000000;stroke-linecap:square;"/>
     </g>
     <g id="line2d_88">
      <g>
       <use style="stroke:#000000;stroke-width:0.8;" x="57.6" xlink:href="#me4606f3f19" y="260.413106"/>
      </g>
     </g>
     <g id="text_11">
      <!-- 55 -->
      <g transform="translate(37.875 264.212325)scale(0.1 -0.1)">
       <use xlink:href="#DejaVuSans-53"/>
       <use x="63.623047" xlink:href="#DejaVuSans-53"/>
      </g>
     </g>
    </g>
    <g id="ytick_3">
     <g id="line2d_89">
      <path clip-path="url(#pd8bacf9be9)" d="M 57.6 227.14108 
L 414.72 227.14108 
" style="fill:none;stroke:#000000;stroke-linecap:square;"/>
     </g>
     <g id="line2d_90">
      <g>
       <use style="stroke:#000000;stroke-width:0.8;" x="57.6" xlink:href="#me4606f3f19" y="227.14108"/>
      </g>
     </g>
     <g id="text_12">
      <!-- 60 -->
      <defs>
       <path d="M 33.015625 40.375 
Q 26.375 40.375 22.484375 35.828125 
Q 18.609375 31.296875 18.609375 23.390625 
Q 18.609375 15.53125 22.484375 10.953125 
Q 26.375 6.390625 33.015625 6.390625 
Q 39.65625 6.390625 43.53125 10.953125 
Q 47.40625 15.53125 47.40625 23.390625 
Q 47.40625 31.296875 43.53125 35.828125 
Q 39.65625 40.375 33.015625 40.375 
z
M 52.59375 71.296875 
L 52.59375 62.3125 
Q 48.875 64.0625 45.09375 64.984375 
Q 41.3125 65.921875 37.59375 65.921875 
Q 27.828125 65.921875 22.671875 59.328125 
Q 17.53125 52.734375 16.796875 39.40625 
Q 19.671875 43.65625 24.015625 45.921875 
Q 28.375 48.1875 33.59375 48.1875 
Q 44.578125 48.1875 50.953125 41.515625 
Q 57.328125 34.859375 57.328125 23.390625 
Q 57.328125 12.15625 50.6875 5.359375 
Q 44.046875 -1.421875 33.015625 -1.421875 
Q 20.359375 -1.421875 13.671875 8.265625 
Q 6.984375 17.96875 6.984375 36.375 
Q 6.984375 53.65625 15.1875 63.9375 
Q 23.390625 74.21875 37.203125 74.21875 
Q 40.921875 74.21875 44.703125 73.484375 
Q 48.484375 72.75 52.59375 71.296875 
z
" id="DejaVuSans-54"/>
      </defs>
      <g transform="translate(37.875 230.940298)scale(0.1 -0.1)">
       <use xlink:href="#DejaVuSans-54"/>
       <use x="63.623047" xlink:href="#DejaVuSans-48"/>
      </g>
     </g>
    </g>
    <g id="ytick_4">
     <g id="line2d_91">
      <path clip-path="url(#pd8bacf9be9)" d="M 57.6 193.869053 
L 414.72 193.869053 
" style="fill:none;stroke:#000000;stroke-linecap:square;"/>
     </g>
     <g id="line2d_92">
      <g>
       <use style="stroke:#000000;stroke-width:0.8;" x="57.6" xlink:href="#me4606f3f19" y="193.869053"/>
      </g>
     </g>
     <g id="text_13">
      <!-- 65 -->
      <g transform="translate(37.875 197.668272)scale(0.1 -0.1)">
       <use xlink:href="#DejaVuSans-54"/>
       <use x="63.623047" xlink:href="#DejaVuSans-53"/>
      </g>
     </g>
    </g>
    <g id="ytick_5">
     <g id="line2d_93">
      <path clip-path="url(#pd8bacf9be9)" d="M 57.6 160.597027 
L 414.72 160.597027 
" style="fill:none;stroke:#000000;stroke-linecap:square;"/>
     </g>
     <g id="line2d_94">
      <g>
       <use style="stroke:#000000;stroke-width:0.8;" x="57.6" xlink:href="#me4606f3f19" y="160.597027"/>
      </g>
     </g>
     <g id="text_14">
      <!-- 70 -->
      <g transform="translate(37.875 164.396246)scale(0.1 -0.1)">
       <use xlink:href="#DejaVuSans-55"/>
       <use x="63.623047" xlink:href="#DejaVuSans-48"/>
      </g>
     </g>
    </g>
    <g id="ytick_6">
     <g id="line2d_95">
      <path clip-path="url(#pd8bacf9be9)" d="M 57.6 127.325001 
L 414.72 127.325001 
" style="fill:none;stroke:#000000;stroke-linecap:square;"/>
     </g>
     <g id="line2d_96">
      <g>
       <use style="stroke:#000000;stroke-width:0.8;" x="57.6" xlink:href="#me4606f3f19" y="127.325001"/>
      </g>
     </g>
     <g id="text_15">
      <!-- 75 -->
      <g transform="translate(37.875 131.12422)scale(0.1 -0.1)">
       <use xlink:href="#DejaVuSans-55"/>
       <use x="63.623047" xlink:href="#DejaVuSans-53"/>
      </g>
     </g>
    </g>
    <g id="ytick_7">
     <g id="line2d_97">
      <path clip-path="url(#pd8bacf9be9)" d="M 57.6 94.052975 
L 414.72 94.052975 
" style="fill:none;stroke:#000000;stroke-linecap:square;"/>
     </g>
     <g id="line2d_98">
      <g>
       <use style="stroke:#000000;stroke-width:0.8;" x="57.6" xlink:href="#me4606f3f19" y="94.052975"/>
      </g>
     </g>
     <g id="text_16">
      <!-- 80 -->
      <defs>
       <path d="M 31.78125 34.625 
Q 24.75 34.625 20.71875 30.859375 
Q 16.703125 27.09375 16.703125 20.515625 
Q 16.703125 13.921875 20.71875 10.15625 
Q 24.75 6.390625 31.78125 6.390625 
Q 38.8125 6.390625 42.859375 10.171875 
Q 46.921875 13.96875 46.921875 20.515625 
Q 46.921875 27.09375 42.890625 30.859375 
Q 38.875 34.625 31.78125 34.625 
z
M 21.921875 38.8125 
Q 15.578125 40.375 12.03125 44.71875 
Q 8.5 49.078125 8.5 55.328125 
Q 8.5 64.0625 14.71875 69.140625 
Q 20.953125 74.21875 31.78125 74.21875 
Q 42.671875 74.21875 48.875 69.140625 
Q 55.078125 64.0625 55.078125 55.328125 
Q 55.078125 49.078125 51.53125 44.71875 
Q 48 40.375 41.703125 38.8125 
Q 48.828125 37.15625 52.796875 32.3125 
Q 56.78125 27.484375 56.78125 20.515625 
Q 56.78125 9.90625 50.3125 4.234375 
Q 43.84375 -1.421875 31.78125 -1.421875 
Q 19.734375 -1.421875 13.25 4.234375 
Q 6.78125 9.90625 6.78125 20.515625 
Q 6.78125 27.484375 10.78125 32.3125 
Q 14.796875 37.15625 21.921875 38.8125 
z
M 18.3125 54.390625 
Q 18.3125 48.734375 21.84375 45.5625 
Q 25.390625 42.390625 31.78125 42.390625 
Q 38.140625 42.390625 41.71875 45.5625 
Q 45.3125 48.734375 45.3125 54.390625 
Q 45.3125 60.0625 41.71875 63.234375 
Q 38.140625 66.40625 31.78125 66.40625 
Q 25.390625 66.40625 21.84375 63.234375 
Q 18.3125 60.0625 18.3125 54.390625 
z
" id="DejaVuSans-56"/>
      </defs>
      <g transform="translate(37.875 97.852194)scale(0.1 -0.1)">
       <use xlink:href="#DejaVuSans-56"/>
       <use x="63.623047" xlink:href="#DejaVuSans-48"/>
      </g>
     </g>
    </g>
    <g id="ytick_8">
     <g id="line2d_99">
      <path clip-path="url(#pd8bacf9be9)" d="M 57.6 60.780949 
L 414.72 60.780949 
" style="fill:none;stroke:#000000;stroke-linecap:square;"/>
     </g>
     <g id="line2d_100">
      <g>
       <use style="stroke:#000000;stroke-width:0.8;" x="57.6" xlink:href="#me4606f3f19" y="60.780949"/>
      </g>
     </g>
     <g id="text_17">
      <!-- 85 -->
      <g transform="translate(37.875 64.580167)scale(0.1 -0.1)">
       <use xlink:href="#DejaVuSans-56"/>
       <use x="63.623047" xlink:href="#DejaVuSans-53"/>
      </g>
     </g>
    </g>
    <g id="ytick_9">
     <g id="line2d_101">
      <path clip-path="url(#pd8bacf9be9)" d="M 57.6 306.993943 
L 414.72 306.993943 
" style="fill:none;stroke:#b0b0b0;stroke-linecap:square;stroke-width:0.8;"/>
     </g>
     <g id="line2d_102">
      <defs>
       <path d="M 0 0 
L -2 0 
" id="m7f5a4aacf4" style="stroke:#000000;stroke-width:0.6;"/>
      </defs>
      <g>
       <use style="stroke:#000000;stroke-width:0.6;" x="57.6" xlink:href="#m7f5a4aacf4" y="306.993943"/>
      </g>
     </g>
    </g>
    <g id="ytick_10">
     <g id="line2d_103">
      <path clip-path="url(#pd8bacf9be9)" d="M 57.6 300.339537 
L 414.72 300.339537 
" style="fill:none;stroke:#b0b0b0;stroke-linecap:square;stroke-width:0.8;"/>
     </g>
     <g id="line2d_104">
      <g>
       <use style="stroke:#000000;stroke-width:0.6;" x="57.6" xlink:href="#m7f5a4aacf4" y="300.339537"/>
      </g>
     </g>
    </g>
    <g id="ytick_11">
     <g id="line2d_105">
      <path clip-path="url(#pd8bacf9be9)" d="M 57.6 287.030727 
L 414.72 287.030727 
" style="fill:none;stroke:#b0b0b0;stroke-linecap:square;stroke-width:0.8;"/>
     </g>
     <g id="line2d_106">
      <g>
       <use style="stroke:#000000;stroke-width:0.6;" x="57.6" xlink:href="#m7f5a4aacf4" y="287.030727"/>
      </g>
     </g>
    </g>
    <g id="ytick_12">
     <g id="line2d_107">
      <path clip-path="url(#pd8bacf9be9)" d="M 57.6 280.376322 
L 414.72 280.376322 
" style="fill:none;stroke:#b0b0b0;stroke-linecap:square;stroke-width:0.8;"/>
     </g>
     <g id="line2d_108">
      <g>
       <use style="stroke:#000000;stroke-width:0.6;" x="57.6" xlink:href="#m7f5a4aacf4" y="280.376322"/>
      </g>
     </g>
    </g>
    <g id="ytick_13">
     <g id="line2d_109">
      <path clip-path="url(#pd8bacf9be9)" d="M 57.6 273.721916 
L 414.72 273.721916 
" style="fill:none;stroke:#b0b0b0;stroke-linecap:square;stroke-width:0.8;"/>
     </g>
     <g id="line2d_110">
      <g>
       <use style="stroke:#000000;stroke-width:0.6;" x="57.6" xlink:href="#m7f5a4aacf4" y="273.721916"/>
      </g>
     </g>
    </g>
    <g id="ytick_14">
     <g id="line2d_111">
      <path clip-path="url(#pd8bacf9be9)" d="M 57.6 267.067511 
L 414.72 267.067511 
" style="fill:none;stroke:#b0b0b0;stroke-linecap:square;stroke-width:0.8;"/>
     </g>
     <g id="line2d_112">
      <g>
       <use style="stroke:#000000;stroke-width:0.6;" x="57.6" xlink:href="#m7f5a4aacf4" y="267.067511"/>
      </g>
     </g>
    </g>
    <g id="ytick_15">
     <g id="line2d_113">
      <path clip-path="url(#pd8bacf9be9)" d="M 57.6 253.758701 
L 414.72 253.758701 
" style="fill:none;stroke:#b0b0b0;stroke-linecap:square;stroke-width:0.8;"/>
     </g>
     <g id="line2d_114">
      <g>
       <use style="stroke:#000000;stroke-width:0.6;" x="57.6" xlink:href="#m7f5a4aacf4" y="253.758701"/>
      </g>
     </g>
    </g>
    <g id="ytick_16">
     <g id="line2d_115">
      <path clip-path="url(#pd8bacf9be9)" d="M 57.6 247.104295 
L 414.72 247.104295 
" style="fill:none;stroke:#b0b0b0;stroke-linecap:square;stroke-width:0.8;"/>
     </g>
     <g id="line2d_116">
      <g>
       <use style="stroke:#000000;stroke-width:0.6;" x="57.6" xlink:href="#m7f5a4aacf4" y="247.104295"/>
      </g>
     </g>
    </g>
    <g id="ytick_17">
     <g id="line2d_117">
      <path clip-path="url(#pd8bacf9be9)" d="M 57.6 240.44989 
L 414.72 240.44989 
" style="fill:none;stroke:#b0b0b0;stroke-linecap:square;stroke-width:0.8;"/>
     </g>
     <g id="line2d_118">
      <g>
       <use style="stroke:#000000;stroke-width:0.6;" x="57.6" xlink:href="#m7f5a4aacf4" y="240.44989"/>
      </g>
     </g>
    </g>
    <g id="ytick_18">
     <g id="line2d_119">
      <path clip-path="url(#pd8bacf9be9)" d="M 57.6 233.795485 
L 414.72 233.795485 
" style="fill:none;stroke:#b0b0b0;stroke-linecap:square;stroke-width:0.8;"/>
     </g>
     <g id="line2d_120">
      <g>
       <use style="stroke:#000000;stroke-width:0.6;" x="57.6" xlink:href="#m7f5a4aacf4" y="233.795485"/>
      </g>
     </g>
    </g>
    <g id="ytick_19">
     <g id="line2d_121">
      <path clip-path="url(#pd8bacf9be9)" d="M 57.6 220.486674 
L 414.72 220.486674 
" style="fill:none;stroke:#b0b0b0;stroke-linecap:square;stroke-width:0.8;"/>
     </g>
     <g id="line2d_122">
      <g>
       <use style="stroke:#000000;stroke-width:0.6;" x="57.6" xlink:href="#m7f5a4aacf4" y="220.486674"/>
      </g>
     </g>
    </g>
    <g id="ytick_20">
     <g id="line2d_123">
      <path clip-path="url(#pd8bacf9be9)" d="M 57.6 213.832269 
L 414.72 213.832269 
" style="fill:none;stroke:#b0b0b0;stroke-linecap:square;stroke-width:0.8;"/>
     </g>
     <g id="line2d_124">
      <g>
       <use style="stroke:#000000;stroke-width:0.6;" x="57.6" xlink:href="#m7f5a4aacf4" y="213.832269"/>
      </g>
     </g>
    </g>
    <g id="ytick_21">
     <g id="line2d_125">
      <path clip-path="url(#pd8bacf9be9)" d="M 57.6 207.177864 
L 414.72 207.177864 
" style="fill:none;stroke:#b0b0b0;stroke-linecap:square;stroke-width:0.8;"/>
     </g>
     <g id="line2d_126">
      <g>
       <use style="stroke:#000000;stroke-width:0.6;" x="57.6" xlink:href="#m7f5a4aacf4" y="207.177864"/>
      </g>
     </g>
    </g>
    <g id="ytick_22">
     <g id="line2d_127">
      <path clip-path="url(#pd8bacf9be9)" d="M 57.6 200.523459 
L 414.72 200.523459 
" style="fill:none;stroke:#b0b0b0;stroke-linecap:square;stroke-width:0.8;"/>
     </g>
     <g id="line2d_128">
      <g>
       <use style="stroke:#000000;stroke-width:0.6;" x="57.6" xlink:href="#m7f5a4aacf4" y="200.523459"/>
      </g>
     </g>
    </g>
    <g id="ytick_23">
     <g id="line2d_129">
      <path clip-path="url(#pd8bacf9be9)" d="M 57.6 187.214648 
L 414.72 187.214648 
" style="fill:none;stroke:#b0b0b0;stroke-linecap:square;stroke-width:0.8;"/>
     </g>
     <g id="line2d_130">
      <g>
       <use style="stroke:#000000;stroke-width:0.6;" x="57.6" xlink:href="#m7f5a4aacf4" y="187.214648"/>
      </g>
     </g>
    </g>
    <g id="ytick_24">
     <g id="line2d_131">
      <path clip-path="url(#pd8bacf9be9)" d="M 57.6 180.560243 
L 414.72 180.560243 
" style="fill:none;stroke:#b0b0b0;stroke-linecap:square;stroke-width:0.8;"/>
     </g>
     <g id="line2d_132">
      <g>
       <use style="stroke:#000000;stroke-width:0.6;" x="57.6" xlink:href="#m7f5a4aacf4" y="180.560243"/>
      </g>
     </g>
    </g>
    <g id="ytick_25">
     <g id="line2d_133">
      <path clip-path="url(#pd8bacf9be9)" d="M 57.6 173.905838 
L 414.72 173.905838 
" style="fill:none;stroke:#b0b0b0;stroke-linecap:square;stroke-width:0.8;"/>
     </g>
     <g id="line2d_134">
      <g>
       <use style="stroke:#000000;stroke-width:0.6;" x="57.6" xlink:href="#m7f5a4aacf4" y="173.905838"/>
      </g>
     </g>
    </g>
    <g id="ytick_26">
     <g id="line2d_135">
      <path clip-path="url(#pd8bacf9be9)" d="M 57.6 167.251432 
L 414.72 167.251432 
" style="fill:none;stroke:#b0b0b0;stroke-linecap:square;stroke-width:0.8;"/>
     </g>
     <g id="line2d_136">
      <g>
       <use style="stroke:#000000;stroke-width:0.6;" x="57.6" xlink:href="#m7f5a4aacf4" y="167.251432"/>
      </g>
     </g>
    </g>
    <g id="ytick_27">
     <g id="line2d_137">
      <path clip-path="url(#pd8bacf9be9)" d="M 57.6 153.942622 
L 414.72 153.942622 
" style="fill:none;stroke:#b0b0b0;stroke-linecap:square;stroke-width:0.8;"/>
     </g>
     <g id="line2d_138">
      <g>
       <use style="stroke:#000000;stroke-width:0.6;" x="57.6" xlink:href="#m7f5a4aacf4" y="153.942622"/>
      </g>
     </g>
    </g>
    <g id="ytick_28">
     <g id="line2d_139">
      <path clip-path="url(#pd8bacf9be9)" d="M 57.6 147.288217 
L 414.72 147.288217 
" style="fill:none;stroke:#b0b0b0;stroke-linecap:square;stroke-width:0.8;"/>
     </g>
     <g id="line2d_140">
      <g>
       <use style="stroke:#000000;stroke-width:0.6;" x="57.6" xlink:href="#m7f5a4aacf4" y="147.288217"/>
      </g>
     </g>
    </g>
    <g id="ytick_29">
     <g id="line2d_141">
      <path clip-path="url(#pd8bacf9be9)" d="M 57.6 140.633812 
L 414.72 140.633812 
" style="fill:none;stroke:#b0b0b0;stroke-linecap:square;stroke-width:0.8;"/>
     </g>
     <g id="line2d_142">
      <g>
       <use style="stroke:#000000;stroke-width:0.6;" x="57.6" xlink:href="#m7f5a4aacf4" y="140.633812"/>
      </g>
     </g>
    </g>
    <g id="ytick_30">
     <g id="line2d_143">
      <path clip-path="url(#pd8bacf9be9)" d="M 57.6 133.979406 
L 414.72 133.979406 
" style="fill:none;stroke:#b0b0b0;stroke-linecap:square;stroke-width:0.8;"/>
     </g>
     <g id="line2d_144">
      <g>
       <use style="stroke:#000000;stroke-width:0.6;" x="57.6" xlink:href="#m7f5a4aacf4" y="133.979406"/>
      </g>
     </g>
    </g>
    <g id="ytick_31">
     <g id="line2d_145">
      <path clip-path="url(#pd8bacf9be9)" d="M 57.6 120.670596 
L 414.72 120.670596 
" style="fill:none;stroke:#b0b0b0;stroke-linecap:square;stroke-width:0.8;"/>
     </g>
     <g id="line2d_146">
      <g>
       <use style="stroke:#000000;stroke-width:0.6;" x="57.6" xlink:href="#m7f5a4aacf4" y="120.670596"/>
      </g>
     </g>
    </g>
    <g id="ytick_32">
     <g id="line2d_147">
      <path clip-path="url(#pd8bacf9be9)" d="M 57.6 114.016191 
L 414.72 114.016191 
" style="fill:none;stroke:#b0b0b0;stroke-linecap:square;stroke-width:0.8;"/>
     </g>
     <g id="line2d_148">
      <g>
       <use style="stroke:#000000;stroke-width:0.6;" x="57.6" xlink:href="#m7f5a4aacf4" y="114.016191"/>
      </g>
     </g>
    </g>
    <g id="ytick_33">
     <g id="line2d_149">
      <path clip-path="url(#pd8bacf9be9)" d="M 57.6 107.361785 
L 414.72 107.361785 
" style="fill:none;stroke:#b0b0b0;stroke-linecap:square;stroke-width:0.8;"/>
     </g>
     <g id="line2d_150">
      <g>
       <use style="stroke:#000000;stroke-width:0.6;" x="57.6" xlink:href="#m7f5a4aacf4" y="107.361785"/>
      </g>
     </g>
    </g>
    <g id="ytick_34">
     <g id="line2d_151">
      <path clip-path="url(#pd8bacf9be9)" d="M 57.6 100.70738 
L 414.72 100.70738 
" style="fill:none;stroke:#b0b0b0;stroke-linecap:square;stroke-width:0.8;"/>
     </g>
     <g id="line2d_152">
      <g>
       <use style="stroke:#000000;stroke-width:0.6;" x="57.6" xlink:href="#m7f5a4aacf4" y="100.70738"/>
      </g>
     </g>
    </g>
    <g id="ytick_35">
     <g id="line2d_153">
      <path clip-path="url(#pd8bacf9be9)" d="M 57.6 87.39857 
L 414.72 87.39857 
" style="fill:none;stroke:#b0b0b0;stroke-linecap:square;stroke-width:0.8;"/>
     </g>
     <g id="line2d_154">
      <g>
       <use style="stroke:#000000;stroke-width:0.6;" x="57.6" xlink:href="#m7f5a4aacf4" y="87.39857"/>
      </g>
     </g>
    </g>
    <g id="ytick_36">
     <g id="line2d_155">
      <path clip-path="url(#pd8bacf9be9)" d="M 57.6 80.744164 
L 414.72 80.744164 
" style="fill:none;stroke:#b0b0b0;stroke-linecap:square;stroke-width:0.8;"/>
     </g>
     <g id="line2d_156">
      <g>
       <use style="stroke:#000000;stroke-width:0.6;" x="57.6" xlink:href="#m7f5a4aacf4" y="80.744164"/>
      </g>
     </g>
    </g>
    <g id="ytick_37">
     <g id="line2d_157">
      <path clip-path="url(#pd8bacf9be9)" d="M 57.6 74.089759 
L 414.72 74.089759 
" style="fill:none;stroke:#b0b0b0;stroke-linecap:square;stroke-width:0.8;"/>
     </g>
     <g id="line2d_158">
      <g>
       <use style="stroke:#000000;stroke-width:0.6;" x="57.6" xlink:href="#m7f5a4aacf4" y="74.089759"/>
      </g>
     </g>
    </g>
    <g id="ytick_38">
     <g id="line2d_159">
      <path clip-path="url(#pd8bacf9be9)" d="M 57.6 67.435354 
L 414.72 67.435354 
" style="fill:none;stroke:#b0b0b0;stroke-linecap:square;stroke-width:0.8;"/>
     </g>
     <g id="line2d_160">
      <g>
       <use style="stroke:#000000;stroke-width:0.6;" x="57.6" xlink:href="#m7f5a4aacf4" y="67.435354"/>
      </g>
     </g>
    </g>
    <g id="ytick_39">
     <g id="line2d_161">
      <path clip-path="url(#pd8bacf9be9)" d="M 57.6 54.126543 
L 414.72 54.126543 
" style="fill:none;stroke:#b0b0b0;stroke-linecap:square;stroke-width:0.8;"/>
     </g>
     <g id="line2d_162">
      <g>
       <use style="stroke:#000000;stroke-width:0.6;" x="57.6" xlink:href="#m7f5a4aacf4" y="54.126543"/>
      </g>
     </g>
    </g>
    <g id="ytick_40">
     <g id="line2d_163">
      <path clip-path="url(#pd8bacf9be9)" d="M 57.6 47.472138 
L 414.72 47.472138 
" style="fill:none;stroke:#b0b0b0;stroke-linecap:square;stroke-width:0.8;"/>
     </g>
     <g id="line2d_164">
      <g>
       <use style="stroke:#000000;stroke-width:0.6;" x="57.6" xlink:href="#m7f5a4aacf4" y="47.472138"/>
      </g>
     </g>
    </g>
    <g id="text_18">
     <!-- SNR [dB] -->
     <defs>
      <path d="M 53.515625 70.515625 
L 53.515625 60.890625 
Q 47.90625 63.578125 42.921875 64.890625 
Q 37.9375 66.21875 33.296875 66.21875 
Q 25.25 66.21875 20.875 63.09375 
Q 16.5 59.96875 16.5 54.203125 
Q 16.5 49.359375 19.40625 46.890625 
Q 22.3125 44.4375 30.421875 42.921875 
L 36.375 41.703125 
Q 47.40625 39.59375 52.65625 34.296875 
Q 57.90625 29 57.90625 20.125 
Q 57.90625 9.515625 50.796875 4.046875 
Q 43.703125 -1.421875 29.984375 -1.421875 
Q 24.8125 -1.421875 18.96875 -0.25 
Q 13.140625 0.921875 6.890625 3.21875 
L 6.890625 13.375 
Q 12.890625 10.015625 18.65625 8.296875 
Q 24.421875 6.59375 29.984375 6.59375 
Q 38.421875 6.59375 43.015625 9.90625 
Q 47.609375 13.234375 47.609375 19.390625 
Q 47.609375 24.75 44.3125 27.78125 
Q 41.015625 30.8125 33.5 32.328125 
L 27.484375 33.5 
Q 16.453125 35.6875 11.515625 40.375 
Q 6.59375 45.0625 6.59375 53.421875 
Q 6.59375 63.09375 13.40625 68.65625 
Q 20.21875 74.21875 32.171875 74.21875 
Q 37.3125 74.21875 42.625 73.28125 
Q 47.953125 72.359375 53.515625 70.515625 
z
" id="DejaVuSans-83"/>
      <path d="M 9.8125 72.90625 
L 23.09375 72.90625 
L 55.421875 11.921875 
L 55.421875 72.90625 
L 64.984375 72.90625 
L 64.984375 0 
L 51.703125 0 
L 19.390625 60.984375 
L 19.390625 0 
L 9.8125 0 
z
" id="DejaVuSans-78"/>
      <path d="M 44.390625 34.1875 
Q 47.5625 33.109375 50.5625 29.59375 
Q 53.5625 26.078125 56.59375 19.921875 
L 66.609375 0 
L 56 0 
L 46.6875 18.703125 
Q 43.0625 26.03125 39.671875 28.421875 
Q 36.28125 30.8125 30.421875 30.8125 
L 19.671875 30.8125 
L 19.671875 0 
L 9.8125 0 
L 9.8125 72.90625 
L 32.078125 72.90625 
Q 44.578125 72.90625 50.734375 67.671875 
Q 56.890625 62.453125 56.890625 51.90625 
Q 56.890625 45.015625 53.6875 40.46875 
Q 50.484375 35.9375 44.390625 34.1875 
z
M 19.671875 64.796875 
L 19.671875 38.921875 
L 32.078125 38.921875 
Q 39.203125 38.921875 42.84375 42.21875 
Q 46.484375 45.515625 46.484375 51.90625 
Q 46.484375 58.296875 42.84375 61.546875 
Q 39.203125 64.796875 32.078125 64.796875 
z
" id="DejaVuSans-82"/>
     </defs>
     <g transform="translate(31.795312 197.012375)rotate(-90)scale(0.1 -0.1)">
      <use xlink:href="#DejaVuSans-83"/>
      <use x="63.476562" xlink:href="#DejaVuSans-78"/>
      <use x="138.28125" xlink:href="#DejaVuSans-82"/>
      <use x="207.763672" xlink:href="#DejaVuSans-32"/>
      <use x="239.550781" xlink:href="#DejaVuSans-91"/>
      <use x="278.564453" xlink:href="#DejaVuSans-100"/>
      <use x="342.041016" xlink:href="#DejaVuSans-66"/>
      <use x="410.644531" xlink:href="#DejaVuSans-93"/>
     </g>
    </g>
   </g>
   <g id="line2d_165">
    <path clip-path="url(#pd8bacf9be9)" d="M 73.832727 285.034405 
L 82.331537 239.119009 
L 90.830347 205.846983 
L 99.329158 178.563921 
L 107.827968 155.938944 
L 116.326778 142.630133 
L 124.825588 136.641168 
L 133.324398 134.644847 
L 141.823208 133.313966 
L 150.322018 133.313966 
L 158.820828 133.979406 
L 226.811309 133.979406 
L 235.310119 136.641168 
L 243.808929 134.644847 
L 252.307739 133.313966 
L 260.806549 133.313966 
L 269.305359 133.979406 
L 371.29108 133.979406 
L 379.789891 136.641168 
L 388.288701 134.644847 
L 396.787511 133.313966 
L 396.787511 133.313966 
" style="fill:none;stroke:#1f77b4;stroke-linecap:square;stroke-width:1.5;"/>
   </g>
   <g id="line2d_166">
    <path clip-path="url(#pd8bacf9be9)" d="M 73.832727 284.368965 
L 82.331537 239.119009 
L 90.830347 201.85434 
L 99.329158 177.23304 
L 107.827968 146.622776 
L 116.326778 123.997798 
L 124.825588 104.700023 
L 133.324398 98.711058 
L 141.823208 92.056653 
L 150.322018 90.725772 
L 158.820828 88.729451 
L 167.319638 89.394891 
L 184.317258 89.394891 
L 192.816069 90.060332 
L 201.314879 88.729451 
L 226.811309 88.729451 
L 235.310119 92.056653 
L 243.808929 90.725772 
L 252.307739 88.729451 
L 260.806549 88.729451 
L 269.305359 89.394891 
L 277.804169 89.394891 
L 286.30298 92.056653 
L 294.80179 90.725772 
L 303.3006 88.729451 
L 320.29822 88.729451 
L 328.79703 92.056653 
L 337.29584 90.725772 
L 345.79465 88.729451 
L 354.29346 90.725772 
L 362.79227 88.729451 
L 371.29108 89.394891 
L 379.789891 89.394891 
L 388.288701 88.729451 
L 396.787511 88.729451 
L 396.787511 88.729451 
" style="fill:none;stroke:#ff7f0e;stroke-linecap:square;stroke-width:1.5;"/>
   </g>
   <g id="line2d_167">
    <path clip-path="url(#pd8bacf9be9)" d="M 73.832727 283.703524 
L 82.331537 239.119009 
L 90.830347 202.51978 
L 99.329158 175.236719 
L 107.827968 143.961014 
L 116.326778 116.677953 
L 124.825588 90.060332 
L 133.324398 67.435354 
L 141.823208 62.11183 
L 150.322018 58.119187 
L 158.820828 55.457424 
L 167.319638 56.788305 
L 175.818448 54.791984 
L 184.317258 55.457424 
L 192.816069 54.126543 
L 218.312499 54.126543 
L 226.811309 55.457424 
L 235.310119 58.119187 
L 243.808929 55.457424 
L 252.307739 56.788305 
L 260.806549 54.791984 
L 269.305359 55.457424 
L 277.804169 54.126543 
L 286.30298 54.126543 
L 294.80179 58.119187 
L 303.3006 55.457424 
L 311.79941 56.788305 
L 320.29822 54.791984 
L 328.79703 55.457424 
L 337.29584 56.788305 
L 345.79465 54.791984 
L 354.29346 55.457424 
L 362.79227 54.126543 
L 388.288701 54.126543 
L 396.787511 55.457424 
L 396.787511 55.457424 
" style="fill:none;stroke:#2ca02c;stroke-linecap:square;stroke-width:1.5;"/>
   </g>
   <g id="line2d_168">
    <path clip-path="url(#pd8bacf9be9)" d="M 73.832727 291.055569 
L 75.456 289.543553 
L 77.079273 287.693886 
L 78.702545 285.50581 
L 80.650473 282.443681 
L 82.5984 278.927208 
L 84.870982 274.290965 
L 87.143564 269.132559 
L 89.7408 262.672345 
L 92.662691 254.787678 
L 96.233891 244.430723 
L 100.4544 231.434837 
L 106.947491 210.578744 
L 113.765236 188.867428 
L 117.336436 178.204561 
L 120.258327 170.145244 
L 122.855564 163.64039 
L 125.128145 158.544874 
L 127.076073 154.659522 
L 129.024 151.234432 
L 130.971927 148.266816 
L 132.919855 145.738273 
L 134.867782 143.61748 
L 136.815709 141.864048 
L 138.763636 140.432726 
L 140.711564 139.277207 
L 142.984145 138.218643 
L 145.256727 137.411472 
L 147.853964 136.727277 
L 150.775855 136.183448 
L 154.347055 135.744947 
L 158.892218 135.415429 
L 165.385309 135.185894 
L 176.098909 135.060049 
L 204.993164 135.022106 
L 398.487273 135.021331 
L 398.487273 135.021331 
" style="fill:none;stroke:#d62728;stroke-linecap:square;stroke-width:1.5;"/>
   </g>
   <g id="line2d_169">
    <path clip-path="url(#pd8bacf9be9)" d="M 73.832727 290.953201 
L 75.456 289.435675 
L 77.079273 287.578864 
L 78.702545 285.381722 
L 80.650473 282.305691 
L 82.5984 278.771314 
L 84.870982 274.107858 
L 87.143564 268.913535 
L 89.7408 262.398195 
L 92.662691 254.426995 
L 95.909236 244.899711 
L 99.805091 232.716087 
L 104.350255 217.719411 
L 110.518691 196.497104 
L 123.180218 152.636995 
L 127.076073 140.066152 
L 129.997964 131.303122 
L 132.5952 124.151217 
L 134.867782 118.480452 
L 137.140364 113.42183 
L 139.088291 109.601315 
L 141.036218 106.263006 
L 142.984145 103.395573 
L 144.932073 100.97266 
L 146.88 98.956281 
L 148.827927 97.301084 
L 150.775855 95.958631 
L 152.723782 94.881012 
L 154.996364 93.899031 
L 157.268945 93.153889 
L 159.866182 92.524957 
L 163.112727 91.982406 
L 167.008582 91.572229 
L 172.203055 91.269897 
L 179.670109 91.079581 
L 193.630255 90.986639 
L 251.743418 90.970077 
L 398.487273 90.970071 
L 398.487273 90.970071 
" style="fill:none;stroke:#9467bd;stroke-linecap:square;stroke-width:1.5;"/>
   </g>
   <g id="line2d_170">
    <path clip-path="url(#pd8bacf9be9)" d="M 73.832727 295.488 
L 75.456 293.969295 
L 77.079273 292.110953 
L 78.702545 289.911868 
L 80.650473 286.832856 
L 82.5984 283.294638 
L 84.870982 278.625338 
L 87.143564 273.423291 
L 89.7408 266.896075 
L 92.662691 258.906176 
L 95.909236 249.348575 
L 99.480436 238.156038 
L 103.700945 224.20325 
L 108.895418 206.227835 
L 115.713164 181.756219 
L 132.919855 119.542107 
L 136.815709 106.48057 
L 140.062255 96.349029 
L 142.659491 88.905163 
L 144.932073 82.974556 
L 147.204655 77.656531 
L 149.152582 73.61904 
L 151.100509 70.073773 
L 153.048436 67.013957 
L 154.996364 64.416866 
L 156.944291 62.246773 
L 158.892218 60.459105 
L 160.840145 59.004893 
L 162.788073 57.834713 
L 164.736 56.901683 
L 167.008582 56.056574 
L 169.605818 55.341579 
L 172.527709 54.774404 
L 176.098909 54.318034 
L 180.644073 53.975843 
L 187.137164 53.738025 
L 197.850764 53.60794 
L 226.095709 53.568871 
L 398.487273 53.568 
L 398.487273 53.568 
" style="fill:none;stroke:#8c564b;stroke-linecap:square;stroke-width:1.5;"/>
   </g>
   <g id="patch_3">
    <path d="M 57.6 307.584 
L 57.6 41.472 
" style="fill:none;stroke:#000000;stroke-linecap:square;stroke-linejoin:miter;stroke-width:0.8;"/>
   </g>
   <g id="patch_4">
    <path d="M 414.72 307.584 
L 414.72 41.472 
" style="fill:none;stroke:#000000;stroke-linecap:square;stroke-linejoin:miter;stroke-width:0.8;"/>
   </g>
   <g id="patch_5">
    <path d="M 57.6 307.584 
L 414.72 307.584 
" style="fill:none;stroke:#000000;stroke-linecap:square;stroke-linejoin:miter;stroke-width:0.8;"/>
   </g>
   <g id="patch_6">
    <path d="M 57.6 41.472 
L 414.72 41.472 
" style="fill:none;stroke:#000000;stroke-linecap:square;stroke-linejoin:miter;stroke-width:0.8;"/>
   </g>
   <g id="legend_1">
    <g id="patch_7">
     <path d="M 163.099687 302.584 
L 407.72 302.584 
Q 409.72 302.584 409.72 300.584 
L 409.72 213.51525 
Q 409.72 211.51525 407.72 211.51525 
L 163.099687 211.51525 
Q 161.099687 211.51525 161.099687 213.51525 
L 161.099687 300.584 
Q 161.099687 302.584 163.099687 302.584 
z
" style="fill:#ffffff;opacity:0.8;stroke:#cccccc;stroke-linejoin:miter;"/>
    </g>
    <g id="line2d_171">
     <path d="M 165.099687 219.613687 
L 185.099687 219.613687 
" style="fill:none;stroke:#1f77b4;stroke-linecap:square;stroke-width:1.5;"/>
    </g>
    <g id="line2d_172"/>
    <g id="text_19">
     <!-- Simulated, ENOB = 12, NSD = 3, NRS = 3 -->
     <defs>
      <path d="M 52 44.1875 
Q 55.375 50.25 60.0625 53.125 
Q 64.75 56 71.09375 56 
Q 79.640625 56 84.28125 50.015625 
Q 88.921875 44.046875 88.921875 33.015625 
L 88.921875 0 
L 79.890625 0 
L 79.890625 32.71875 
Q 79.890625 40.578125 77.09375 44.375 
Q 74.3125 48.1875 68.609375 48.1875 
Q 61.625 48.1875 57.5625 43.546875 
Q 53.515625 38.921875 53.515625 30.90625 
L 53.515625 0 
L 44.484375 0 
L 44.484375 32.71875 
Q 44.484375 40.625 41.703125 44.40625 
Q 38.921875 48.1875 33.109375 48.1875 
Q 26.21875 48.1875 22.15625 43.53125 
Q 18.109375 38.875 18.109375 30.90625 
L 18.109375 0 
L 9.078125 0 
L 9.078125 54.6875 
L 18.109375 54.6875 
L 18.109375 46.1875 
Q 21.1875 51.21875 25.484375 53.609375 
Q 29.78125 56 35.6875 56 
Q 41.65625 56 45.828125 52.96875 
Q 50 49.953125 52 44.1875 
z
" id="DejaVuSans-109"/>
      <path d="M 8.5 21.578125 
L 8.5 54.6875 
L 17.484375 54.6875 
L 17.484375 21.921875 
Q 17.484375 14.15625 20.5 10.265625 
Q 23.53125 6.390625 29.59375 6.390625 
Q 36.859375 6.390625 41.078125 11.03125 
Q 45.3125 15.671875 45.3125 23.6875 
L 45.3125 54.6875 
L 54.296875 54.6875 
L 54.296875 0 
L 45.3125 0 
L 45.3125 8.40625 
Q 42.046875 3.421875 37.71875 1 
Q 33.40625 -1.421875 27.6875 -1.421875 
Q 18.265625 -1.421875 13.375 4.4375 
Q 8.5 10.296875 8.5 21.578125 
z
M 31.109375 56 
z
" id="DejaVuSans-117"/>
      <path d="M 9.421875 75.984375 
L 18.40625 75.984375 
L 18.40625 0 
L 9.421875 0 
z
" id="DejaVuSans-108"/>
      <path d="M 18.3125 70.21875 
L 18.3125 54.6875 
L 36.8125 54.6875 
L 36.8125 47.703125 
L 18.3125 47.703125 
L 18.3125 18.015625 
Q 18.3125 11.328125 20.140625 9.421875 
Q 21.96875 7.515625 27.59375 7.515625 
L 36.8125 7.515625 
L 36.8125 0 
L 27.59375 0 
Q 17.1875 0 13.234375 3.875 
Q 9.28125 7.765625 9.28125 18.015625 
L 9.28125 47.703125 
L 2.6875 47.703125 
L 2.6875 54.6875 
L 9.28125 54.6875 
L 9.28125 70.21875 
z
" id="DejaVuSans-116"/>
      <path d="M 56.203125 29.59375 
L 56.203125 25.203125 
L 14.890625 25.203125 
Q 15.484375 15.921875 20.484375 11.0625 
Q 25.484375 6.203125 34.421875 6.203125 
Q 39.59375 6.203125 44.453125 7.46875 
Q 49.3125 8.734375 54.109375 11.28125 
L 54.109375 2.78125 
Q 49.265625 0.734375 44.1875 -0.34375 
Q 39.109375 -1.421875 33.890625 -1.421875 
Q 20.796875 -1.421875 13.15625 6.1875 
Q 5.515625 13.8125 5.515625 26.8125 
Q 5.515625 40.234375 12.765625 48.109375 
Q 20.015625 56 32.328125 56 
Q 43.359375 56 49.78125 48.890625 
Q 56.203125 41.796875 56.203125 29.59375 
z
M 47.21875 32.234375 
Q 47.125 39.59375 43.09375 43.984375 
Q 39.0625 48.390625 32.421875 48.390625 
Q 24.90625 48.390625 20.390625 44.140625 
Q 15.875 39.890625 15.1875 32.171875 
z
" id="DejaVuSans-101"/>
      <path d="M 11.71875 12.40625 
L 22.015625 12.40625 
L 22.015625 4 
L 14.015625 -11.625 
L 7.71875 -11.625 
L 11.71875 4 
z
" id="DejaVuSans-44"/>
      <path d="M 9.8125 72.90625 
L 55.90625 72.90625 
L 55.90625 64.59375 
L 19.671875 64.59375 
L 19.671875 43.015625 
L 54.390625 43.015625 
L 54.390625 34.71875 
L 19.671875 34.71875 
L 19.671875 8.296875 
L 56.78125 8.296875 
L 56.78125 0 
L 9.8125 0 
z
" id="DejaVuSans-69"/>
      <path d="M 39.40625 66.21875 
Q 28.65625 66.21875 22.328125 58.203125 
Q 16.015625 50.203125 16.015625 36.375 
Q 16.015625 22.609375 22.328125 14.59375 
Q 28.65625 6.59375 39.40625 6.59375 
Q 50.140625 6.59375 56.421875 14.59375 
Q 62.703125 22.609375 62.703125 36.375 
Q 62.703125 50.203125 56.421875 58.203125 
Q 50.140625 66.21875 39.40625 66.21875 
z
M 39.40625 74.21875 
Q 54.734375 74.21875 63.90625 63.9375 
Q 73.09375 53.65625 73.09375 36.375 
Q 73.09375 19.140625 63.90625 8.859375 
Q 54.734375 -1.421875 39.40625 -1.421875 
Q 24.03125 -1.421875 14.8125 8.828125 
Q 5.609375 19.09375 5.609375 36.375 
Q 5.609375 53.65625 14.8125 63.9375 
Q 24.03125 74.21875 39.40625 74.21875 
z
" id="DejaVuSans-79"/>
      <path d="M 10.59375 45.40625 
L 73.1875 45.40625 
L 73.1875 37.203125 
L 10.59375 37.203125 
z
M 10.59375 25.484375 
L 73.1875 25.484375 
L 73.1875 17.1875 
L 10.59375 17.1875 
z
" id="DejaVuSans-61"/>
      <path d="M 19.671875 64.796875 
L 19.671875 8.109375 
L 31.59375 8.109375 
Q 46.6875 8.109375 53.6875 14.9375 
Q 60.6875 21.78125 60.6875 36.53125 
Q 60.6875 51.171875 53.6875 57.984375 
Q 46.6875 64.796875 31.59375 64.796875 
z
M 9.8125 72.90625 
L 30.078125 72.90625 
Q 51.265625 72.90625 61.171875 64.09375 
Q 71.09375 55.28125 71.09375 36.53125 
Q 71.09375 17.671875 61.125 8.828125 
Q 51.171875 0 30.078125 0 
L 9.8125 0 
z
" id="DejaVuSans-68"/>
      <path d="M 40.578125 39.3125 
Q 47.65625 37.796875 51.625 33 
Q 55.609375 28.21875 55.609375 21.1875 
Q 55.609375 10.40625 48.1875 4.484375 
Q 40.765625 -1.421875 27.09375 -1.421875 
Q 22.515625 -1.421875 17.65625 -0.515625 
Q 12.796875 0.390625 7.625 2.203125 
L 7.625 11.71875 
Q 11.71875 9.328125 16.59375 8.109375 
Q 21.484375 6.890625 26.8125 6.890625 
Q 36.078125 6.890625 40.9375 10.546875 
Q 45.796875 14.203125 45.796875 21.1875 
Q 45.796875 27.640625 41.28125 31.265625 
Q 36.765625 34.90625 28.71875 34.90625 
L 20.21875 34.90625 
L 20.21875 43.015625 
L 29.109375 43.015625 
Q 36.375 43.015625 40.234375 45.921875 
Q 44.09375 48.828125 44.09375 54.296875 
Q 44.09375 59.90625 40.109375 62.90625 
Q 36.140625 65.921875 28.71875 65.921875 
Q 24.65625 65.921875 20.015625 65.03125 
Q 15.375 64.15625 9.8125 62.3125 
L 9.8125 71.09375 
Q 15.4375 72.65625 20.34375 73.4375 
Q 25.25 74.21875 29.59375 74.21875 
Q 40.828125 74.21875 47.359375 69.109375 
Q 53.90625 64.015625 53.90625 55.328125 
Q 53.90625 49.265625 50.4375 45.09375 
Q 46.96875 40.921875 40.578125 39.3125 
z
" id="DejaVuSans-51"/>
     </defs>
     <g transform="translate(193.099687 223.113687)scale(0.1 -0.1)">
      <use xlink:href="#DejaVuSans-83"/>
      <use x="63.476562" xlink:href="#DejaVuSans-105"/>
      <use x="91.259766" xlink:href="#DejaVuSans-109"/>
      <use x="188.671875" xlink:href="#DejaVuSans-117"/>
      <use x="252.050781" xlink:href="#DejaVuSans-108"/>
      <use x="279.833984" xlink:href="#DejaVuSans-97"/>
      <use x="341.113281" xlink:href="#DejaVuSans-116"/>
      <use x="380.322266" xlink:href="#DejaVuSans-101"/>
      <use x="441.845703" xlink:href="#DejaVuSans-100"/>
      <use x="505.322266" xlink:href="#DejaVuSans-44"/>
      <use x="537.109375" xlink:href="#DejaVuSans-32"/>
      <use x="568.896484" xlink:href="#DejaVuSans-69"/>
      <use x="632.080078" xlink:href="#DejaVuSans-78"/>
      <use x="706.884766" xlink:href="#DejaVuSans-79"/>
      <use x="785.595703" xlink:href="#DejaVuSans-66"/>
      <use x="854.199219" xlink:href="#DejaVuSans-32"/>
      <use x="885.986328" xlink:href="#DejaVuSans-61"/>
      <use x="969.775391" xlink:href="#DejaVuSans-32"/>
      <use x="1001.5625" xlink:href="#DejaVuSans-49"/>
      <use x="1065.185547" xlink:href="#DejaVuSans-50"/>
      <use x="1128.808594" xlink:href="#DejaVuSans-44"/>
      <use x="1160.595703" xlink:href="#DejaVuSans-32"/>
      <use x="1192.382812" xlink:href="#DejaVuSans-78"/>
      <use x="1267.1875" xlink:href="#DejaVuSans-83"/>
      <use x="1330.664062" xlink:href="#DejaVuSans-68"/>
      <use x="1407.666016" xlink:href="#DejaVuSans-32"/>
      <use x="1439.453125" xlink:href="#DejaVuSans-61"/>
      <use x="1523.242188" xlink:href="#DejaVuSans-32"/>
      <use x="1555.029297" xlink:href="#DejaVuSans-51"/>
      <use x="1618.652344" xlink:href="#DejaVuSans-44"/>
      <use x="1650.439453" xlink:href="#DejaVuSans-32"/>
      <use x="1682.226562" xlink:href="#DejaVuSans-78"/>
      <use x="1757.03125" xlink:href="#DejaVuSans-82"/>
      <use x="1826.513672" xlink:href="#DejaVuSans-83"/>
      <use x="1889.990234" xlink:href="#DejaVuSans-32"/>
      <use x="1921.777344" xlink:href="#DejaVuSans-61"/>
      <use x="2005.566406" xlink:href="#DejaVuSans-32"/>
      <use x="2037.353516" xlink:href="#DejaVuSans-51"/>
     </g>
    </g>
    <g id="line2d_173">
     <path d="M 165.099687 234.291812 
L 185.099687 234.291812 
" style="fill:none;stroke:#ff7f0e;stroke-linecap:square;stroke-width:1.5;"/>
    </g>
    <g id="line2d_174"/>
    <g id="text_20">
     <!-- Simulated, ENOB = 13, NSD = 3, NRS = 4 -->
     <defs>
      <path d="M 37.796875 64.3125 
L 12.890625 25.390625 
L 37.796875 25.390625 
z
M 35.203125 72.90625 
L 47.609375 72.90625 
L 47.609375 25.390625 
L 58.015625 25.390625 
L 58.015625 17.1875 
L 47.609375 17.1875 
L 47.609375 0 
L 37.796875 0 
L 37.796875 17.1875 
L 4.890625 17.1875 
L 4.890625 26.703125 
z
" id="DejaVuSans-52"/>
     </defs>
     <g transform="translate(193.099687 237.791812)scale(0.1 -0.1)">
      <use xlink:href="#DejaVuSans-83"/>
      <use x="63.476562" xlink:href="#DejaVuSans-105"/>
      <use x="91.259766" xlink:href="#DejaVuSans-109"/>
      <use x="188.671875" xlink:href="#DejaVuSans-117"/>
      <use x="252.050781" xlink:href="#DejaVuSans-108"/>
      <use x="279.833984" xlink:href="#DejaVuSans-97"/>
      <use x="341.113281" xlink:href="#DejaVuSans-116"/>
      <use x="380.322266" xlink:href="#DejaVuSans-101"/>
      <use x="441.845703" xlink:href="#DejaVuSans-100"/>
      <use x="505.322266" xlink:href="#DejaVuSans-44"/>
      <use x="537.109375" xlink:href="#DejaVuSans-32"/>
      <use x="568.896484" xlink:href="#DejaVuSans-69"/>
      <use x="632.080078" xlink:href="#DejaVuSans-78"/>
      <use x="706.884766" xlink:href="#DejaVuSans-79"/>
      <use x="785.595703" xlink:href="#DejaVuSans-66"/>
      <use x="854.199219" xlink:href="#DejaVuSans-32"/>
      <use x="885.986328" xlink:href="#DejaVuSans-61"/>
      <use x="969.775391" xlink:href="#DejaVuSans-32"/>
      <use x="1001.5625" xlink:href="#DejaVuSans-49"/>
      <use x="1065.185547" xlink:href="#DejaVuSans-51"/>
      <use x="1128.808594" xlink:href="#DejaVuSans-44"/>
      <use x="1160.595703" xlink:href="#DejaVuSans-32"/>
      <use x="1192.382812" xlink:href="#DejaVuSans-78"/>
      <use x="1267.1875" xlink:href="#DejaVuSans-83"/>
      <use x="1330.664062" xlink:href="#DejaVuSans-68"/>
      <use x="1407.666016" xlink:href="#DejaVuSans-32"/>
      <use x="1439.453125" xlink:href="#DejaVuSans-61"/>
      <use x="1523.242188" xlink:href="#DejaVuSans-32"/>
      <use x="1555.029297" xlink:href="#DejaVuSans-51"/>
      <use x="1618.652344" xlink:href="#DejaVuSans-44"/>
      <use x="1650.439453" xlink:href="#DejaVuSans-32"/>
      <use x="1682.226562" xlink:href="#DejaVuSans-78"/>
      <use x="1757.03125" xlink:href="#DejaVuSans-82"/>
      <use x="1826.513672" xlink:href="#DejaVuSans-83"/>
      <use x="1889.990234" xlink:href="#DejaVuSans-32"/>
      <use x="1921.777344" xlink:href="#DejaVuSans-61"/>
      <use x="2005.566406" xlink:href="#DejaVuSans-32"/>
      <use x="2037.353516" xlink:href="#DejaVuSans-52"/>
     </g>
    </g>
    <g id="line2d_175">
     <path d="M 165.099687 248.969937 
L 185.099687 248.969937 
" style="fill:none;stroke:#2ca02c;stroke-linecap:square;stroke-width:1.5;"/>
    </g>
    <g id="line2d_176"/>
    <g id="text_21">
     <!-- Simulated, ENOB = 14, NSD = 3, NRS = 5 -->
     <g transform="translate(193.099687 252.469937)scale(0.1 -0.1)">
      <use xlink:href="#DejaVuSans-83"/>
      <use x="63.476562" xlink:href="#DejaVuSans-105"/>
      <use x="91.259766" xlink:href="#DejaVuSans-109"/>
      <use x="188.671875" xlink:href="#DejaVuSans-117"/>
      <use x="252.050781" xlink:href="#DejaVuSans-108"/>
      <use x="279.833984" xlink:href="#DejaVuSans-97"/>
      <use x="341.113281" xlink:href="#DejaVuSans-116"/>
      <use x="380.322266" xlink:href="#DejaVuSans-101"/>
      <use x="441.845703" xlink:href="#DejaVuSans-100"/>
      <use x="505.322266" xlink:href="#DejaVuSans-44"/>
      <use x="537.109375" xlink:href="#DejaVuSans-32"/>
      <use x="568.896484" xlink:href="#DejaVuSans-69"/>
      <use x="632.080078" xlink:href="#DejaVuSans-78"/>
      <use x="706.884766" xlink:href="#DejaVuSans-79"/>
      <use x="785.595703" xlink:href="#DejaVuSans-66"/>
      <use x="854.199219" xlink:href="#DejaVuSans-32"/>
      <use x="885.986328" xlink:href="#DejaVuSans-61"/>
      <use x="969.775391" xlink:href="#DejaVuSans-32"/>
      <use x="1001.5625" xlink:href="#DejaVuSans-49"/>
      <use x="1065.185547" xlink:href="#DejaVuSans-52"/>
      <use x="1128.808594" xlink:href="#DejaVuSans-44"/>
      <use x="1160.595703" xlink:href="#DejaVuSans-32"/>
      <use x="1192.382812" xlink:href="#DejaVuSans-78"/>
      <use x="1267.1875" xlink:href="#DejaVuSans-83"/>
      <use x="1330.664062" xlink:href="#DejaVuSans-68"/>
      <use x="1407.666016" xlink:href="#DejaVuSans-32"/>
      <use x="1439.453125" xlink:href="#DejaVuSans-61"/>
      <use x="1523.242188" xlink:href="#DejaVuSans-32"/>
      <use x="1555.029297" xlink:href="#DejaVuSans-51"/>
      <use x="1618.652344" xlink:href="#DejaVuSans-44"/>
      <use x="1650.439453" xlink:href="#DejaVuSans-32"/>
      <use x="1682.226562" xlink:href="#DejaVuSans-78"/>
      <use x="1757.03125" xlink:href="#DejaVuSans-82"/>
      <use x="1826.513672" xlink:href="#DejaVuSans-83"/>
      <use x="1889.990234" xlink:href="#DejaVuSans-32"/>
      <use x="1921.777344" xlink:href="#DejaVuSans-61"/>
      <use x="2005.566406" xlink:href="#DejaVuSans-32"/>
      <use x="2037.353516" xlink:href="#DejaVuSans-53"/>
     </g>
    </g>
    <g id="line2d_177">
     <path d="M 165.099687 263.648062 
L 185.099687 263.648062 
" style="fill:none;stroke:#d62728;stroke-linecap:square;stroke-width:1.5;"/>
    </g>
    <g id="line2d_178"/>
    <g id="text_22">
     <!-- Calculated, ENOB = 12, NSD = 3, NRS = 3 -->
     <defs>
      <path d="M 64.40625 67.28125 
L 64.40625 56.890625 
Q 59.421875 61.53125 53.78125 63.8125 
Q 48.140625 66.109375 41.796875 66.109375 
Q 29.296875 66.109375 22.65625 58.46875 
Q 16.015625 50.828125 16.015625 36.375 
Q 16.015625 21.96875 22.65625 14.328125 
Q 29.296875 6.6875 41.796875 6.6875 
Q 48.140625 6.6875 53.78125 8.984375 
Q 59.421875 11.28125 64.40625 15.921875 
L 64.40625 5.609375 
Q 59.234375 2.09375 53.4375 0.328125 
Q 47.65625 -1.421875 41.21875 -1.421875 
Q 24.65625 -1.421875 15.125 8.703125 
Q 5.609375 18.84375 5.609375 36.375 
Q 5.609375 53.953125 15.125 64.078125 
Q 24.65625 74.21875 41.21875 74.21875 
Q 47.75 74.21875 53.53125 72.484375 
Q 59.328125 70.75 64.40625 67.28125 
z
" id="DejaVuSans-67"/>
      <path d="M 48.78125 52.59375 
L 48.78125 44.1875 
Q 44.96875 46.296875 41.140625 47.34375 
Q 37.3125 48.390625 33.40625 48.390625 
Q 24.65625 48.390625 19.8125 42.84375 
Q 14.984375 37.3125 14.984375 27.296875 
Q 14.984375 17.28125 19.8125 11.734375 
Q 24.65625 6.203125 33.40625 6.203125 
Q 37.3125 6.203125 41.140625 7.25 
Q 44.96875 8.296875 48.78125 10.40625 
L 48.78125 2.09375 
Q 45.015625 0.34375 40.984375 -0.53125 
Q 36.96875 -1.421875 32.421875 -1.421875 
Q 20.0625 -1.421875 12.78125 6.34375 
Q 5.515625 14.109375 5.515625 27.296875 
Q 5.515625 40.671875 12.859375 48.328125 
Q 20.21875 56 33.015625 56 
Q 37.15625 56 41.109375 55.140625 
Q 45.0625 54.296875 48.78125 52.59375 
z
" id="DejaVuSans-99"/>
     </defs>
     <g transform="translate(193.099687 267.148062)scale(0.1 -0.1)">
      <use xlink:href="#DejaVuSans-67"/>
      <use x="69.824219" xlink:href="#DejaVuSans-97"/>
      <use x="131.103516" xlink:href="#DejaVuSans-108"/>
      <use x="158.886719" xlink:href="#DejaVuSans-99"/>
      <use x="213.867188" xlink:href="#DejaVuSans-117"/>
      <use x="277.246094" xlink:href="#DejaVuSans-108"/>
      <use x="305.029297" xlink:href="#DejaVuSans-97"/>
      <use x="366.308594" xlink:href="#DejaVuSans-116"/>
      <use x="405.517578" xlink:href="#DejaVuSans-101"/>
      <use x="467.041016" xlink:href="#DejaVuSans-100"/>
      <use x="530.517578" xlink:href="#DejaVuSans-44"/>
      <use x="562.304688" xlink:href="#DejaVuSans-32"/>
      <use x="594.091797" xlink:href="#DejaVuSans-69"/>
      <use x="657.275391" xlink:href="#DejaVuSans-78"/>
      <use x="732.080078" xlink:href="#DejaVuSans-79"/>
      <use x="810.791016" xlink:href="#DejaVuSans-66"/>
      <use x="879.394531" xlink:href="#DejaVuSans-32"/>
      <use x="911.181641" xlink:href="#DejaVuSans-61"/>
      <use x="994.970703" xlink:href="#DejaVuSans-32"/>
      <use x="1026.757812" xlink:href="#DejaVuSans-49"/>
      <use x="1090.380859" xlink:href="#DejaVuSans-50"/>
      <use x="1154.003906" xlink:href="#DejaVuSans-44"/>
      <use x="1185.791016" xlink:href="#DejaVuSans-32"/>
      <use x="1217.578125" xlink:href="#DejaVuSans-78"/>
      <use x="1292.382812" xlink:href="#DejaVuSans-83"/>
      <use x="1355.859375" xlink:href="#DejaVuSans-68"/>
      <use x="1432.861328" xlink:href="#DejaVuSans-32"/>
      <use x="1464.648438" xlink:href="#DejaVuSans-61"/>
      <use x="1548.4375" xlink:href="#DejaVuSans-32"/>
      <use x="1580.224609" xlink:href="#DejaVuSans-51"/>
      <use x="1643.847656" xlink:href="#DejaVuSans-44"/>
      <use x="1675.634766" xlink:href="#DejaVuSans-32"/>
      <use x="1707.421875" xlink:href="#DejaVuSans-78"/>
      <use x="1782.226562" xlink:href="#DejaVuSans-82"/>
      <use x="1851.708984" xlink:href="#DejaVuSans-83"/>
      <use x="1915.185547" xlink:href="#DejaVuSans-32"/>
      <use x="1946.972656" xlink:href="#DejaVuSans-61"/>
      <use x="2030.761719" xlink:href="#DejaVuSans-32"/>
      <use x="2062.548828" xlink:href="#DejaVuSans-51"/>
     </g>
    </g>
    <g id="line2d_179">
     <path d="M 165.099687 278.326188 
L 185.099687 278.326188 
" style="fill:none;stroke:#9467bd;stroke-linecap:square;stroke-width:1.5;"/>
    </g>
    <g id="line2d_180"/>
    <g id="text_23">
     <!-- Calculated, ENOB = 13, NSD = 3, NRS = 4 -->
     <g transform="translate(193.099687 281.826188)scale(0.1 -0.1)">
      <use xlink:href="#DejaVuSans-67"/>
      <use x="69.824219" xlink:href="#DejaVuSans-97"/>
      <use x="131.103516" xlink:href="#DejaVuSans-108"/>
      <use x="158.886719" xlink:href="#DejaVuSans-99"/>
      <use x="213.867188" xlink:href="#DejaVuSans-117"/>
      <use x="277.246094" xlink:href="#DejaVuSans-108"/>
      <use x="305.029297" xlink:href="#DejaVuSans-97"/>
      <use x="366.308594" xlink:href="#DejaVuSans-116"/>
      <use x="405.517578" xlink:href="#DejaVuSans-101"/>
      <use x="467.041016" xlink:href="#DejaVuSans-100"/>
      <use x="530.517578" xlink:href="#DejaVuSans-44"/>
      <use x="562.304688" xlink:href="#DejaVuSans-32"/>
      <use x="594.091797" xlink:href="#DejaVuSans-69"/>
      <use x="657.275391" xlink:href="#DejaVuSans-78"/>
      <use x="732.080078" xlink:href="#DejaVuSans-79"/>
      <use x="810.791016" xlink:href="#DejaVuSans-66"/>
      <use x="879.394531" xlink:href="#DejaVuSans-32"/>
      <use x="911.181641" xlink:href="#DejaVuSans-61"/>
      <use x="994.970703" xlink:href="#DejaVuSans-32"/>
      <use x="1026.757812" xlink:href="#DejaVuSans-49"/>
      <use x="1090.380859" xlink:href="#DejaVuSans-51"/>
      <use x="1154.003906" xlink:href="#DejaVuSans-44"/>
      <use x="1185.791016" xlink:href="#DejaVuSans-32"/>
      <use x="1217.578125" xlink:href="#DejaVuSans-78"/>
      <use x="1292.382812" xlink:href="#DejaVuSans-83"/>
      <use x="1355.859375" xlink:href="#DejaVuSans-68"/>
      <use x="1432.861328" xlink:href="#DejaVuSans-32"/>
      <use x="1464.648438" xlink:href="#DejaVuSans-61"/>
      <use x="1548.4375" xlink:href="#DejaVuSans-32"/>
      <use x="1580.224609" xlink:href="#DejaVuSans-51"/>
      <use x="1643.847656" xlink:href="#DejaVuSans-44"/>
      <use x="1675.634766" xlink:href="#DejaVuSans-32"/>
      <use x="1707.421875" xlink:href="#DejaVuSans-78"/>
      <use x="1782.226562" xlink:href="#DejaVuSans-82"/>
      <use x="1851.708984" xlink:href="#DejaVuSans-83"/>
      <use x="1915.185547" xlink:href="#DejaVuSans-32"/>
      <use x="1946.972656" xlink:href="#DejaVuSans-61"/>
      <use x="2030.761719" xlink:href="#DejaVuSans-32"/>
      <use x="2062.548828" xlink:href="#DejaVuSans-52"/>
     </g>
    </g>
    <g id="line2d_181">
     <path d="M 165.099687 293.004312 
L 185.099687 293.004312 
" style="fill:none;stroke:#8c564b;stroke-linecap:square;stroke-width:1.5;"/>
    </g>
    <g id="line2d_182"/>
    <g id="text_24">
     <!-- Calculated, ENOB = 14, NSD = 3, NRS = 5 -->
     <g transform="translate(193.099687 296.504312)scale(0.1 -0.1)">
      <use xlink:href="#DejaVuSans-67"/>
      <use x="69.824219" xlink:href="#DejaVuSans-97"/>
      <use x="131.103516" xlink:href="#DejaVuSans-108"/>
      <use x="158.886719" xlink:href="#DejaVuSans-99"/>
      <use x="213.867188" xlink:href="#DejaVuSans-117"/>
      <use x="277.246094" xlink:href="#DejaVuSans-108"/>
      <use x="305.029297" xlink:href="#DejaVuSans-97"/>
      <use x="366.308594" xlink:href="#DejaVuSans-116"/>
      <use x="405.517578" xlink:href="#DejaVuSans-101"/>
      <use x="467.041016" xlink:href="#DejaVuSans-100"/>
      <use x="530.517578" xlink:href="#DejaVuSans-44"/>
      <use x="562.304688" xlink:href="#DejaVuSans-32"/>
      <use x="594.091797" xlink:href="#DejaVuSans-69"/>
      <use x="657.275391" xlink:href="#DejaVuSans-78"/>
      <use x="732.080078" xlink:href="#DejaVuSans-79"/>
      <use x="810.791016" xlink:href="#DejaVuSans-66"/>
      <use x="879.394531" xlink:href="#DejaVuSans-32"/>
      <use x="911.181641" xlink:href="#DejaVuSans-61"/>
      <use x="994.970703" xlink:href="#DejaVuSans-32"/>
      <use x="1026.757812" xlink:href="#DejaVuSans-49"/>
      <use x="1090.380859" xlink:href="#DejaVuSans-52"/>
      <use x="1154.003906" xlink:href="#DejaVuSans-44"/>
      <use x="1185.791016" xlink:href="#DejaVuSans-32"/>
      <use x="1217.578125" xlink:href="#DejaVuSans-78"/>
      <use x="1292.382812" xlink:href="#DejaVuSans-83"/>
      <use x="1355.859375" xlink:href="#DejaVuSans-68"/>
      <use x="1432.861328" xlink:href="#DejaVuSans-32"/>
      <use x="1464.648438" xlink:href="#DejaVuSans-61"/>
      <use x="1548.4375" xlink:href="#DejaVuSans-32"/>
      <use x="1580.224609" xlink:href="#DejaVuSans-51"/>
      <use x="1643.847656" xlink:href="#DejaVuSans-44"/>
      <use x="1675.634766" xlink:href="#DejaVuSans-32"/>
      <use x="1707.421875" xlink:href="#DejaVuSans-78"/>
      <use x="1782.226562" xlink:href="#DejaVuSans-82"/>
      <use x="1851.708984" xlink:href="#DejaVuSans-83"/>
      <use x="1915.185547" xlink:href="#DejaVuSans-32"/>
      <use x="1946.972656" xlink:href="#DejaVuSans-61"/>
      <use x="2030.761719" xlink:href="#DejaVuSans-32"/>
      <use x="2062.548828" xlink:href="#DejaVuSans-53"/>
     </g>
    </g>
   </g>
  </g>
 </g>
 <defs>
  <clipPath id="pd8bacf9be9">
   <rect height="266.112" width="357.12" x="57.6" y="41.472"/>
  </clipPath>
 </defs>
</svg>
